<?xml version="1.0" encoding="UTF-8"?>
<svg id="Layer_2" data-name="Layer 2" xmlns="http://www.w3.org/2000/svg" xmlns:xlink="http://www.w3.org/1999/xlink" viewBox="0 0 883.9 1564.44">
  <defs>
    <style>
      .cls-1 {
        opacity: .5;
      }

      .cls-2 {
        stroke: #fff;
        stroke-miterlimit: 10;
        stroke-width: .75px;
      }

      .cls-2, .cls-3 {
        fill: none;
      }

      .cls-4 {
        clip-path: url(#clippath-2);
      }

      .cls-5 {
        clip-path: url(#clippath-1);
      }

      .cls-6 {
        opacity: .75;
      }

      .cls-7 {
        opacity: .6;
      }

      .cls-8 {
        clip-path: url(#clippath);
      }

      .cls-9 {
        clip-path: url(#clippath-3);
      }

      .cls-10 {
        opacity: .3;
      }
    </style>
    <clipPath id="clippath">
      <rect class="cls-3" width="883.9" height="1564.44"/>
    </clipPath>
    <clipPath id="clippath-1">
      <polygon class="cls-3" points="-22.11 -72.67 1178.59 2070.06 447.6 2579.42 -753.1 436.69 -22.11 -72.67"/>
    </clipPath>
    <clipPath id="clippath-2">
      <polygon class="cls-3" points="-22.11 -72.67 1178.59 2070.05 447.6 2579.41 -753.1 436.69 -22.11 -72.67"/>
    </clipPath>
    <clipPath id="clippath-3">
      <polygon class="cls-3" points="-22.11 -72.67 1178.59 2070.06 447.6 2579.42 -753.1 436.69 -22.11 -72.67"/>
    </clipPath>
  </defs>
  <g id="Layer_2-2" data-name="Layer 2">
    <g id="Layer_2-2" data-name="Layer 2-2" class="cls-10">
      <g id="Layer_2-2-2" data-name="Layer 2-2" class="cls-1">
        <g id="Layer_1-2" data-name="Layer 1-2">
          <g class="cls-8">
            <g id="Group_14" data-name="Group 14" class="cls-6">
              <g class="cls-5">
                <g id="Group_10" data-name="Group 10">
                  <g id="Group_9" data-name="Group 9">
                    <g class="cls-4">
                      <g id="Group_8" data-name="Group 8">
                        <g id="Group_7" data-name="Group 7" class="cls-7">
                          <g id="Group_6" data-name="Group 6">
                            <g class="cls-9">
                              <g id="Group_5" data-name="Group 5">
                                <path id="Path_105" data-name="Path 105" class="cls-2" d="m785.77,2342.9c-61.46-4.58-100.64-79.4-120.51-133.69-28.02-76.52-35.46-165.08-16.7-246.64,43.6-189.57,96.01-382.01,3.67-545.52-48.74-86.31-150.37-174.23-239.5-208.58-84.04-32.39-166.81-25.86-284.76-109.15-68.08-48.07,24.22-176.24,11.15-264.79-13.14-89.01-115.43-154.34-119.79-244.31-5.01-103.37-10.27-208.31-46.24-303.44-37.6-99.49-107.12-174.36-197.82-217.63"/>
                                <path id="Path_106" data-name="Path 106" class="cls-2" d="m778.53,2344.89c-61.6-5.43-101.57-77.47-122.39-131.67-28.82-75.02-37.37-162.92-20.2-245.93,4.64-22.45,9.57-44.98,14.34-67.6,24.48-117.32,52.44-230.34,38.12-337.5-6.43-48.2-20.05-95.28-44.09-140.2-17.29-32.32-41.51-64.74-70.16-94.18-49.51-50.93-111.08-92.73-168.25-113.93-85.15-31.59-169.74-25.63-284.95-108.14-67.24-48.34,16.56-174.19,3.21-262.89-2.86-19.04-9.48-37.06-18.13-54.48-31.79-64.29-92.18-120.8-95.48-191.62-.85-18.2-1.68-36.46-2.65-54.7-4.53-84.85-12.94-170.07-41.94-248.43-36.82-99.5-105.27-174.92-196.87-217.11"/>
                                <path id="Path_107" data-name="Path 107" class="cls-2" d="m771.29,2346.88c-61.74-6.28-102.49-75.55-124.27-129.65-29.59-73.52-39.26-160.73-23.7-245.22,4.13-22.42,8.73-44.98,13.07-67.74,22.7-119.02,55.35-229.9,41.81-336.5-6.07-48.17-18.91-95.6-41.8-140.84-16.67-32.95-40.07-65.85-68.43-95.33-49.19-51.23-110.93-91.63-168.89-112.31-86.26-30.78-172.68-25.39-285.14-107.13-66.4-48.6,8.9-172.14-4.73-260.98-2.92-19.03-9.27-37.11-17.42-54.6C61.8,731.73,4.94,674.2,1.78,603.29c-.82-18.17-1.59-36.39-2.46-54.61-4.08-84.4-12.1-169.84-40.49-248.22-36.03-99.5-103.43-175.47-195.92-216.6"/>
                                <path id="Path_108" data-name="Path 108" class="cls-2" d="m764.05,2348.87c-61.88-7.13-103.4-73.63-126.15-127.63-30.34-72.02-41.12-158.53-27.2-244.51,3.63-22.39,7.86-44.98,11.8-67.87,20.77-120.77,58.26-229.46,45.51-335.51-5.73-48.13-17.75-95.92-39.52-141.47-16.05-33.58-38.65-66.96-66.7-96.49-48.86-51.52-110.78-90.55-169.52-110.69-87.36-29.98-175.78-24.88-285.32-106.12-65.65-48.69,1.23-170.09-12.68-259.08-2.97-19.02-9.07-37.14-16.7-54.72-28.33-65.33-81.52-123.94-84.56-194.96-.78-18.14-1.5-36.33-2.27-54.51-3.63-83.96-11.27-169.61-39.04-248-35.25-99.51-101.58-176.02-194.97-216.09"/>
                                <path id="Path_109" data-name="Path 109" class="cls-2" d="m756.81,2350.86c-62.02-7.97-104.29-71.71-128.03-125.61-31.07-70.54-42.95-156.31-30.7-243.81,3.13-22.36,6.99-44.99,10.53-68.01,18.83-122.53,61.17-229.02,49.21-334.52-5.38-48.1-16.58-96.26-37.24-142.11-16.52-36.43-38.49-69.45-64.97-97.64-48.53-51.82-110.64-89.46-170.15-109.07-88.47-29.19-178.76-24.58-285.51-105.11-64.84-48.91-6.43-168.05-20.62-257.16-3.02-19.01-8.86-37.18-15.99-54.84-26.56-65.87-76.18-125.51-79.1-196.63-.75-18.11-1.44-36.25-2.08-54.42-3.18-83.51-10.44-169.38-37.59-247.78-34.46-99.52-99.74-176.58-194.02-215.59"/>
                                <path id="Path_110" data-name="Path 110" class="cls-2" d="m749.57,2352.86c-62.16-8.82-105.17-69.8-129.91-123.59-31.77-69.07-44.74-154.07-34.19-243.09,2.64-22.32,6.11-44.99,9.25-68.14,16.87-124.29,64.08-228.58,52.9-333.52-5.04-48.06-15.41-96.61-34.96-142.74-15.59-36.9-37.01-70.36-63.24-98.79-48.21-52.11-110.49-88.37-170.79-107.45-89.58-28.38-181.73-24.29-285.7-104.09-64.02-49.14-14.1-166-28.56-255.26-3.07-19-8.65-37.23-15.27-54.96-24.79-66.42-70.85-127.08-73.63-198.3-.71-18.08-1.34-36.19-1.89-54.33-2.73-83.06-9.6-169.15-36.14-247.56-33.68-99.52-97.89-177.14-193.06-215.08"/>
                                <path id="Path_111" data-name="Path 111" class="cls-2" d="m742.33,2354.85c-62.3-9.67-106.03-67.9-131.79-121.58-32.44-67.6-46.51-151.83-37.69-242.38,2.17-22.29,5.23-45,7.98-68.28,14.89-126.06,66.99-228.14,56.6-332.53-4.69-48.03-14.22-96.96-32.68-143.38-14.13-35.52-34.34-70.3-61.51-99.94-47.89-52.4-110.34-87.28-171.42-105.83-90.69-27.58-184.69-24.01-285.89-103.08-63.19-49.37-21.76-163.95-36.51-253.35-3.12-18.99-8.43-37.27-14.55-55.08-23.02-66.98-65.52-128.65-68.17-199.97-.68-18.04-1.25-36.12-1.71-54.23-2.28-82.61-8.77-168.92-34.68-247.35-32.89-99.53-96.04-177.69-192.12-214.57"/>
                                <path id="Path_112" data-name="Path 112" class="cls-2" d="m735.08,2356.84c-62.44-10.52-106.87-66-133.67-119.55-33.1-66.15-48.23-149.58-41.19-241.67,1.7-22.25,4.35-45.01,6.71-68.42,12.89-127.83,69.9-227.71,60.29-331.53-4.34-47.98-13.01-97.32-30.4-144.02-13.47-36.17-32.91-71.41-59.79-101.09-47.56-52.7-110.19-86.19-172.05-104.21-91.8-26.78-187.64-23.75-286.07-102.07-62.36-49.62-29.43-161.9-44.45-251.44-3.18-18.98-8.21-37.32-13.84-55.2-21.23-67.53-60.19-130.22-62.71-201.64-.65-18.01-1.15-36.05-1.51-54.13-1.83-82.17-7.93-168.69-33.23-247.13-32.11-99.55-94.2-178.25-191.16-214.06"/>
                                <path id="Path_113" data-name="Path 113" class="cls-2" d="m727.84,2358.83c-62.58-11.37-107.7-64.11-135.55-117.53-33.73-64.71-49.93-147.33-44.69-240.96,1.24-22.21,3.46-45.02,5.43-68.55,10.87-129.61,72.82-227.26,63.99-330.54-4-47.95-11.8-97.69-28.12-144.65-12.8-36.83-31.47-72.52-58.06-102.24-47.23-52.99-110.04-85.1-172.69-102.6-92.91-25.98-190.59-23.52-286.26-101.06-61.52-49.86-37.09-159.85-52.39-249.54-3.23-18.97-7.99-37.37-13.12-55.32-19.44-68.1-54.85-131.79-57.25-203.31-.61-17.98-1.05-35.99-1.33-54.04-1.38-81.72-7.1-168.46-31.77-246.92-31.32-99.55-92.35-178.8-190.21-213.55"/>
                                <path id="Path_114" data-name="Path 114" class="cls-2" d="m720.6,2360.82c-62.72-12.22-108.51-62.23-137.43-115.51-34.35-63.28-51.59-145.07-48.18-240.25.79-22.16,2.57-45.03,4.16-68.69,8.84-131.38,75.73-226.83,67.69-329.55-3.65-47.91-10.57-98.07-25.84-145.29-12.13-37.5-30.04-73.63-56.33-103.39-46.91-53.28-109.89-84.02-173.32-100.98-94.02-25.18-193.52-23.29-286.45-100.05-60.68-50.13-44.75-157.8-60.34-247.63-3.28-18.97-7.77-37.42-12.4-55.45-17.65-68.66-49.52-133.36-51.79-204.98-.58-17.95-.96-35.93-1.14-53.95-.93-81.27-6.26-168.24-30.33-246.7-30.53-99.56-90.5-179.35-189.26-213.04"/>
                                <path id="Path_115" data-name="Path 115" class="cls-2" d="m713.36,2362.82c-62.86-13.07-109.31-60.37-139.31-113.49-34.94-61.87-53.21-142.82-51.68-239.54.35-22.12,1.67-45.04,2.88-68.83,6.79-133.16,78.64-226.39,71.39-328.55-3.3-47.88-9.33-98.45-23.56-145.92-11.44-38.17-28.61-74.74-54.6-104.55-46.58-53.58-109.74-82.92-173.95-99.36-95.13-24.38-196.45-23.08-286.64-99.04C-1.95,1113.14,5.47,1007.79-10.39,917.82c-3.34-18.95-7.55-37.47-11.69-55.56-15.84-69.22-44.18-134.93-46.33-206.65-.54-17.91-.86-35.86-.95-53.85-.48-80.83-5.43-168.01-28.88-246.49-29.75-99.56-88.65-179.9-188.3-212.52"/>
                                <path id="Path_116" data-name="Path 116" class="cls-2" d="m706.12,2364.81c-63-13.92-110.09-58.52-141.19-111.47-35.52-60.47-54.8-140.57-55.18-238.83-.09-22.08.78-45.05,1.61-68.96,4.71-134.93,81.55-225.95,75.08-327.56-2.96-47.84-8.08-98.83-21.28-146.56-10.74-38.85-27.17-75.85-52.87-105.69-46.26-53.87-109.6-81.84-174.59-97.74-96.24-23.58-199.36-22.88-286.83-98.03-58.98-50.68-60.08-153.71-76.22-243.82-3.39-18.94-7.32-37.52-10.97-55.68-14.03-69.79-38.85-136.5-40.86-208.33-.51-17.88-.76-35.8-.76-53.76-.04-80.38-4.6-167.78-27.43-246.27-28.96-99.58-86.81-180.46-187.35-212.01"/>
                                <path id="Path_117" data-name="Path 117" class="cls-2" d="m698.88,2366.8c-63.14-14.77-110.85-56.69-143.07-109.45-36.08-59.09-56.35-138.32-58.68-238.12-.51-22.04-.12-45.06.34-69.1,2.63-136.71,84.46-225.51,78.78-326.57-2.61-47.8-6.81-99.21-19-147.2-10.04-39.52-25.74-76.96-51.15-106.85-45.93-54.16-109.45-80.75-175.22-96.12-97.35-22.78-202.27-22.7-287.02-97.02-58.12-50.97-67.75-151.66-84.17-241.91-3.44-18.93-7.1-37.57-10.26-55.8-12.21-70.36-33.52-138.07-35.4-210-.47-17.85-.66-35.74-.57-53.66.42-79.94-3.76-167.55-25.97-246.05-28.18-99.58-84.97-181.01-186.41-211.51"/>
                                <path id="Path_118" data-name="Path 118" class="cls-2" d="m691.64,2368.79c-63.28-15.61-111.59-54.86-144.94-107.43-36.62-57.72-57.87-136.08-62.18-237.41-.94-22-1.03-45.07-.93-69.23.52-138.48,87.37-225.07,82.47-325.57-2.26-47.77-5.54-99.6-16.72-147.83-9.32-40.2-24.3-78.07-49.41-108-45.61-54.46-109.31-79.66-175.85-94.5-98.46-21.98-205.16-22.53-287.2-96.01-57.25-51.27-75.41-149.61-92.11-240-3.49-18.92-6.86-37.63-9.54-55.92-10.38-70.92-28.19-139.64-29.94-211.67-.44-17.82-.57-35.67-.38-53.57.87-79.49-2.93-167.32-24.52-245.83-27.39-99.58-83.12-181.56-185.45-210.99"/>
                                <path id="Path_119" data-name="Path 119" class="cls-2" d="m684.4,2370.79c-63.42-16.46-112.32-53.06-146.82-105.41-37.15-56.37-59.36-133.85-65.68-236.7-1.35-21.96-1.97-45.07-2.2-69.37-1.84-140.24,90.28-224.63,86.17-324.58-1.92-47.73-4.25-99.98-14.44-148.47-8.59-40.87-22.87-79.18-47.69-109.15-45.28-54.75-109.15-78.57-176.49-92.88-99.57-21.18-208.04-22.37-287.39-95-56.37-51.59-83.08-147.56-100.06-238.09-3.54-18.92-6.6-37.68-8.82-56.04-8.43-71.51-22.85-141.21-24.48-213.34-.4-17.78-.47-35.61-.19-53.47,1.32-79.04-2.09-167.09-23.07-245.62-26.61-99.6-81.27-182.12-184.5-210.49"/>
                                <path id="Path_120" data-name="Path 120" class="cls-2" d="m677.15,2372.78c-63.56-17.31-113.03-51.28-148.7-103.39-37.67-55.03-60.8-131.64-69.17-235.99-1.76-21.93-2.92-45.1-3.48-69.5-3.86-142.01,93.19-224.2,89.87-323.59-1.57-47.69-2.95-100.36-12.16-149.1-7.84-41.55-21.43-80.29-45.96-110.3-44.95-55.04-109.01-77.48-177.12-91.26-100.68-20.38-210.82-22.34-287.58-93.99-55.41-51.99-90.74-145.51-108-236.19-3.58-18.55-6.28-37.3-8.1-56.17-6.63-72.06-17.52-142.78-19.02-215.01-.37-17.75-.38-35.54,0-53.37,1.77-78.6-1.26-166.87-21.62-245.4-25.82-99.61-79.42-182.68-183.55-209.98"/>
                                <path id="Path_121" data-name="Path 121" class="cls-2" d="m669.91,2374.77c-143.35-40.87-217.45-148.54-228.01-406.29-5.89-143.77,96.1-223.75,93.56-322.59-2.28-88.73-1.76-196.28-54.11-261.19-110.57-137.1-341.42-63.78-465.52-182.62-65.93-63.13-116.18-183.11-123.34-290.56-6.02-90.4-15.94-179.44-13.37-269.96,5.03-177.26-14.93-407.72-202.76-454.66"/>
                                <path id="Path_122" data-name="Path 122" class="cls-2" d="m691.62,2362.06c-151.18-39.5-222.63-158.05-239.47-410.95-9.49-142.49,79.91-219,70.32-312.21-8.63-83.87-16.91-170.37-75.93-240.89-112.95-134.95-332.88-76.29-446.93-198.57-63.73-68.33-109.2-187.77-114.83-293.12-5.07-94.97,1.67-183.25,6.99-277.69,9.84-174.83-11.18-404.46-198.31-456.06"/>
                                <path id="Path_123" data-name="Path 123" class="cls-2" d="m713.34,2349.36c-159.01-38.13-227.89-167.58-250.93-415.61-13.12-141.23,63.68-214.35,47.07-301.83-15.02-79.11-31.97-144.5-97.75-220.59-115.04-133.06-324.11-89.59-428.34-214.54-61.62-73.88-102.09-192.47-106.31-295.68-4.08-99.56,19.18-187,27.34-285.43,14.29-172.33-7.42-401.18-193.86-457.45"/>
                                <path id="Path_124" data-name="Path 124" class="cls-2" d="m735.05,2336.66c-166.83-36.76-233.23-177.13-262.4-420.27-16.8-139.99,47.37-209.78,23.83-291.44-21.47-74.44-46.96-118.7-119.58-200.3-116.91-131.38-315.03-103.61-409.74-230.49-59.54-79.75-94.87-197.17-97.8-298.23-3.03-104.17,36.58-190.72,47.7-293.16,18.43-169.81-3.66-397.92-189.41-458.85"/>
                                <path id="Path_125" data-name="Path 125" class="cls-2" d="m756.76,2323.95c-174.66-35.39-238.65-186.7-273.86-424.94-20.51-138.76,30.96-205.29.59-281.05-28-69.85-61.89-92.95-141.4-180-118.61-129.85-305.58-118.31-391.15-246.45-57.41-85.96-87.55-201.9-89.29-300.79-1.92-108.79,53.87-194.41,68.05-300.89,22.28-167.28.11-394.65-184.96-460.25"/>
                                <path id="Path_126" data-name="Path 126" class="cls-2" d="m778.47,2311.24c-182.48-34.01-244.15-196.28-285.32-429.59-24.27-137.53,14.42-200.84-22.66-270.68-34.66-65.29-76.74-67.27-163.22-159.7-120.19-128.46-295.73-133.59-372.56-262.4-55.15-92.46-80.14-206.62-80.78-303.35-.75-113.42,71.04-198.1,88.41-308.62,25.89-164.75,3.86-391.38-180.51-461.65"/>
                                <path id="Path_127" data-name="Path 127" class="cls-2" d="m800.18,2298.54c-190.31-32.64-249.75-205.86-296.79-434.26-28.08-136.31-2.27-196.36-45.9-260.29-41.44-60.72-91.53-41.66-185.04-139.4-121.67-127.19-285.46-149.36-353.96-278.37-52.71-99.26-72.65-211.35-72.27-305.9.48-118.05,88.09-201.8,108.76-316.35,29.28-162.24,7.62-388.11-176.06-463.05"/>
                                <path id="Path_128" data-name="Path 128" class="cls-2" d="m821.89,2285.83c-198.13-31.27-255.42-215.44-308.25-438.92-31.93-135.08-19.08-191.81-69.15-249.91-48.34-56.09-106.27-16.12-206.87-119.11-123.07-126-274.76-165.5-335.37-294.32-50.02-106.3-65.1-216.08-63.75-308.46,1.79-122.69,105.02-205.52,129.12-324.08C.09,391.28-21,166.2-203.99,86.58"/>
                                <path id="Path_129" data-name="Path 129" class="cls-2" d="m843.6,2273.13c-205.96-29.9-261.19-224.99-319.71-443.58-35.84-133.85-35.99-187.17-92.4-239.52-55.33-51.36-120.94,9.35-228.69-98.81-124.42-124.89-263.65-181.93-316.78-310.28-47.01-113.56-57.48-220.82-55.24-311.02,3.16-127.34,121.82-209.26,149.47-331.82C15.75,380.78-4.6,156.54-186.9,72.25"/>
                                <path id="Path_130" data-name="Path 130" class="cls-2" d="m865.31,2260.42c-213.79-28.53-267.04-234.53-331.18-448.24-39.79-132.59-52.95-182.4-115.64-229.14-62.38-46.51-135.57,34.74-250.51-78.51-125.7-123.85-252.13-198.53-298.19-326.23-43.63-120.99-49.81-225.55-46.73-313.58,4.62-131.96,138.5-213.05,169.83-339.54C31.27,370.23,11.8,146.87-169.81,57.92"/>
                                <path id="Path_131" data-name="Path 131" class="cls-2" d="m887.02,2247.72c-221.62-27.16-272.97-244.02-342.64-452.9-43.8-131.32-69.93-177.52-138.88-218.76-69.44-41.53-150.14,60.06-272.34-58.22-126.96-122.87-240.25-215.23-279.59-342.19-39.83-128.54-42.09-230.27-38.22-316.13,6.17-136.59,155.05-216.88,190.18-347.27C46.65,359.62,28.2,137.21-152.72,43.59"/>
                                <path id="Path_132" data-name="Path 132" class="cls-2" d="m908.73,2235.01c-229.44-25.79-278.98-253.47-354.11-457.56-47.86-130.02-86.89-172.52-162.13-208.37-76.5-36.45-164.64,85.3-294.16-37.91-128.17-121.94-228.03-231.94-261-358.15-35.58-136.17-34.34-235-29.7-318.69,7.82-141.22,171.48-220.78,210.54-355.01C61.93,348.96,44.6,127.55-135.63,29.26"/>
                                <path id="Path_133" data-name="Path 133" class="cls-2" d="m930.44,2222.31c-237.27-24.42-285.05-262.87-365.57-462.23-51.97-128.68-103.82-167.45-185.37-197.99-83.52-31.27-179.11,110.47-315.98-17.62-129.36-121.06-215.5-248.59-242.41-374.1-30.84-143.82-26.54-239.72-21.19-321.25,9.55-145.82,187.77-224.75,230.89-362.74C77.11,338.23,61,117.88-118.54,14.93"/>
                                <path id="Path_134" data-name="Path 134" class="cls-2" d="m952.15,2209.6c-245.1-23.05-291.2-272.21-377.03-466.89-56.13-127.3-120.7-162.32-208.62-187.61-90.51-26.03-193.53,135.56-337.8,2.68-130.53-120.22-202.7-265.11-223.81-390.06-25.59-151.42-18.7-244.42-12.68-323.81,11.4-150.4,203.94-228.79,251.24-370.46C92.21,327.43,77.39,108.22-101.45.59"/>
                                <path id="Path_135" data-name="Path 135" class="cls-2" d="m973.87,2196.9c-252.92-21.68-297.41-281.49-388.49-471.55-60.33-125.88-137.53-157.14-231.86-177.22-97.44-20.75-207.89,160.57-359.63,22.98-131.69-119.42-189.66-281.45-205.22-406.03-19.85-158.93-10.83-249.11-4.17-326.36,13.37-154.97,219.99-232.92,271.61-378.2C107.24,316.57,93.8,98.56-84.36-13.74"/>
                                <path id="Path_136" data-name="Path 136" class="cls-2" d="m995.58,2184.19c-260.75-20.3-303.66-290.69-399.96-476.22-64.57-124.4-154.32-151.93-255.11-166.84-104.34-15.43-222.21,185.51-381.45,43.27-132.83-118.65-176.44-297.57-186.63-421.98-13.62-166.29-2.93-253.79,4.34-328.92,15.45-159.52,235.91-237.14,291.96-385.93C122.21,305.62,110.19,88.89-67.27-28.07"/>
                                <path id="Path_137" data-name="Path 137" class="cls-2" d="m1017.29,2171.49c-268.57-18.94-309.96-299.81-411.43-480.88-68.85-122.87-171.07-146.71-278.35-156.46-111.19-10.1-236.48,210.38-403.27,63.57-133.96-117.91-163.05-313.42-168.04-437.94-6.94-173.46,4.99-258.46,12.86-331.48,17.67-164.03,251.71-241.46,312.31-393.66C137.13,294.61,126.59,79.23-50.18-42.4"/>
                              </g>
                            </g>
                          </g>
                        </g>
                      </g>
                    </g>
                  </g>
                </g>
              </g>
            </g>
          </g>
        </g>
      </g>
    </g>
  </g>
</svg>