<?xml version="1.0" encoding="UTF-8"?>
<svg id="Layer_2" data-name="Layer 2" xmlns="http://www.w3.org/2000/svg" xmlns:xlink="http://www.w3.org/1999/xlink" viewBox="0 0 793.02 1079.27">
  <defs>
    <style>
      .cls-1 {
        stroke: #d9dee2;
        stroke-miterlimit: 10;
        stroke-width: .5px;
      }

      .cls-1, .cls-2 {
        fill: none;
      }

      .cls-3 {
        opacity: .35;
      }

      .cls-4 {
        clip-path: url(#clippath);
      }
    </style>
    <clipPath id="clippath">
      <rect class="cls-2" x="122.46" y="56.84" width="548.1" height="965.6" transform="translate(-133.38 130.2) rotate(-16)"/>
    </clipPath>
  </defs>
  <g id="Layer_1-2" data-name="Layer 1">
    <g id="Group_2" data-name="Group 2" class="cls-3">
      <g class="cls-4">
        <g id="Group_1" data-name="Group 1">
          <path id="Path_1" data-name="Path 1" class="cls-1" d="m42.2,231.69c-8.45,20.46-5.54,42.41-.66,62.69,10.05,41.82,66.3,23.46,79.69,51.84,11.66,24.72,26.07,38.08,53.49,43.3,46.4,8.83,40.29,53.26,24.88,84.83-23.87,48.9-60.61,104.8-21.47,156.34,29.61,39,62.65,56.53,112.1,60.19,20.86,1.54,43.91,2.43,64.7-.74,20.89-3.19,45.67-18.13,64.31-4.05,37.18,28.09,22.87,98.23,48.9,134.24,19.06,26.38,37.9,32.68,65.3,9.88,37.69-31.34,70.97,18.66,89.6,46.78,16.17,24.42,17.9,71.51,46.59,86.28"/>
          <path id="Path_2" data-name="Path 2" class="cls-1" d="m47.7,228.14c-7.96,20.12-4.91,41.65.09,61.39,5.86,23.1,31.98,30.29,52.88,34.41,14.42,2.84,27.82,6.3,31.3,14.77,10.7,26.04,24.49,36.9,51.33,43.92,7.74,2.02,14.49,4.81,19.65,8.68,26.07,19.52,15.91,51.73,5.49,75.38-11.45,26-29.62,53.93-36.89,81.78-7.77,29.79-4.22,54.47,12.62,80.53,10.27,15.89,25.41,32.69,42.02,41.12,20.28,10.28,43.47,14.94,67.02,17.49,4.76.51,9.85.69,14.92.81,20.13.46,37.83-.56,57.48-5.03,18.8-4.28,37.66-15.63,55.78-4.91.7.42,1.36.89,1.99,1.41,37.2,30.45,21.4,99.97,46.83,136.54,19.12,27.5,37.2,30.74,64.74,8.26,20.24-16.52,39.37-7.54,55.29,6.92,13.08,11.89,24.55,28.58,34.66,44.23,15.97,24.73,18,70.6,45.91,85.62"/>
          <path id="Path_3" data-name="Path 3" class="cls-1" d="m53.37,224.53c-6.92,20.04-3.82,40.53,1.76,59.7,6.72,23.06,35.23,28.64,56.22,32.48,14.73,2.69,27.84,6.23,31.34,14.6,10.43,24.97,23.03,36.31,48.56,44.95,6.51,2.05,12.52,5.44,17.65,9.94,23.08,21.12,17.38,48.27,7.72,73.09-10.55,27.1-27.57,55.99-35.73,83.88-8.78,30-7.41,57.13,9.37,84.06,9.59,15.4,24.54,31.54,41.05,39.45,20.44,9.59,42.39,15.58,64.88,17.68,4.79.48,9.77.77,14.83.94,21.31.7,37.75-1.62,58.24-7.39,18.76-5.28,37.99-16.73,56.28-5.52.69.43,1.35.91,1.97,1.44,36.94,31.24,19.81,101.81,44.83,138.68,19.21,28.31,36.44,28.25,64.18,6.7,21.13-16.41,40.31-4.2,55.8,10.87,12.84,12.48,24.3,29.01,34.48,44.69,16,24.64,18.1,69.13,45.22,84.87"/>
          <path id="Path_4" data-name="Path 4" class="cls-1" d="m59.13,220.87c-5.67,18.78-2.91,39.74,4.16,57.7,9.1,23.13,37.77,27.04,58.93,30.85,14.8,2.67,27.41,6.4,30.9,14.69,9.43,22.41,22.23,37.27,45.22,46.36,6.33,2.5,11.41,6.79,16.01,11.38,21.34,21.33,18.48,45.57,9.5,70.79-9.83,27.64-25.23,56.72-33.57,84.72-9.21,30.93-10.35,60.18,6.06,87.78,8.8,14.81,23.49,29.35,40.05,37.58,19.66,9.76,40.88,15.98,62.7,18.38,4.74.52,9.69.83,14.78,1.07,22.69,1.03,37.69-2.98,59.04-10.07,18.67-6.2,38.32-17.42,56.7-5.63.69.45,1.34.94,1.95,1.48,36.63,32.07,18.33,103.65,42.9,140.6,19.08,28.7,35.81,25.43,63.65,5.22,22.05-16.01,41.19-.6,56.28,14.97,12.58,12.98,24.02,29.32,34.31,45.01,15.98,24.36,18.17,68.07,44.53,84.06"/>
          <path id="Path_5" data-name="Path 5" class="cls-1" d="m64.93,217.2c-4.62,18.39-.73,38.7,7.11,55.45,10.44,22.29,39.71,25.51,61.02,29.54,14.62,2.76,26.53,6.8,29.99,15.05,9.08,21.67,20.8,36.65,41.38,48.15,5.46,3.05,10.73,7.89,15.23,12.73,19.86,21.32,19.71,43.94,11.07,68.87-9.38,27.03-22.94,56.36-31.16,84.1-9.43,31.84-13.25,65.16,2.87,91.45,9.55,15.18,22.9,27.61,38.72,36.05,18.91,10.11,39.51,16.65,60.78,19.29,4.7.57,9.65.88,14.76,1.19,20.35,1.22,33.93-2.46,52.78-9.75,20.18-7.8,43.26-22.69,64.05-8.52.69.47,1.36.98,1.98,1.53,36.27,32.91,16.93,105.35,41.06,142.26,18.83,28.82,35.25,22.53,63.15,3.83,22.79-15.27,42.19,3.42,56.72,19.18,12.34,13.39,23.75,29.53,34.14,45.18,15.97,24.06,18.23,66.96,43.84,83.18"/>
          <path id="Path_6" data-name="Path 6" class="cls-1" d="m70.72,213.52c-3.43,18,1.83,37.52,10.45,53.04,11.77,21.2,41.13,24.08,62.46,28.56,14.2,2.98,25.21,7.47,28.6,15.68,8.64,20.96,18.78,37.06,37.78,50.32,5.42,4.01,10.36,8.63,14.71,13.78,18.7,21.11,20.94,42.44,12.74,67.11-8.77,26.36-21.05,55.08-28.89,82.41-9.36,32.61-15.34,68.08.09,94.64,7.84,13.49,21.3,26.12,36.97,35.45,18.13,10.69,38.26,17.56,59.15,20.2,4.68.61,9.73.87,14.78,1.31,37.47,3.25,83.65-45.54,117.75-20.56.7.5,1.37,1.05,2,1.63,36.28,33.75,14.82,105.36,39.43,143.17,19.21,29.52,34.69,19.96,62.65,3.01,23.37-14.17,43.11,7.62,57.1,23.46,12.1,13.7,23.5,29.63,33.98,45.2,15.98,23.76,18.27,65.8,43.14,82.26"/>
          <path id="Path_7" data-name="Path 7" class="cls-1" d="m76.45,209.87c-2.12,17.63,4.66,36.2,14.04,50.53,13.07,19.97,41.95,22.69,63.22,27.91,13.53,3.32,23.45,8.34,26.74,16.59,8.16,20.42,17.22,38.4,34.73,52.55,5.16,4.17,9.87,9.47,14.35,14.64,18.16,20.96,21.84,41.38,14.56,65.54-7.58,25.18-19.69,53.15-27.05,79.81-8.3,30.08-18.75,70.71-2.07,97.13,8.51,13.48,20.1,26.36,34.84,35.87,17.5,11.14,37.23,18.34,57.79,21.09,4.66.65,9.85.85,14.82,1.42,38.21,4.41,81.56-51.79,118.49-22.55.69.55,1.38,1.13,2,1.74,35.91,34.91,16.24,101.34,37.88,143.64,17.18,33.57,39.08,14.84,62.3,2.45,23.83-12.72,43.84,11.8,57.43,27.76,12.05,14.43,23.34,29.48,33.81,45.09,16.01,23.46,18.3,64.61,42.43,81.3"/>
          <path id="Path_8" data-name="Path 8" class="cls-1" d="m82.08,206.27c-.98,18.02,8.47,34.64,17.72,47.97,12.78,18.41,42.21,21.32,63.24,27.62,12.61,3.78,21.23,9.43,24.41,17.78,7.85,20.62,15.71,39.4,32.46,54.64,5.02,4.82,9.75,9.93,14.15,15.32,17.58,20.52,23.29,40.33,16.61,64.16-6.78,24.17-18.66,51.23-25.64,76.86-8.22,30.18-19.22,70.9-3.76,98.46,7.87,14.01,18.11,27.39,32.48,37.32,16.97,11.56,36.36,19.08,56.69,21.97,4.66.69,9.77,1.01,14.9,1.54,38.95,3.99,80.9-56.94,119.02-24.15.69.59,1.37,1.22,2,1.86,35.19,35.94,15.57,101.02,36.4,143.67,16.54,33.86,39.31,12.57,62.12,2.13,24.08-11.02,44.35,15.87,57.68,32.01,11.65,14.1,23.04,29.55,33.65,44.85,16.06,23.17,18.3,63.38,41.71,80.33"/>
          <path id="Path_9" data-name="Path 9" class="cls-1" d="m87.57,202.73c.6,17.56,11.44,33.09,21.36,45.42,13.92,17.3,41.89,19.85,62.45,27.69,11.46,4.37,18.4,10.7,21.43,19.15,7.48,20.86,15.27,40.51,31.37,56.49,5,5,9.72,10.28,14.12,15.82,16.65,20.91,25.25,38.05,18.88,62.95-5.94,23.24-17.68,49.45-24.48,74.13-8.43,30.65-19,70.38-5.57,98.97,6.88,14.65,16.12,28.54,30.35,38.98,16.51,11.97,35.65,19.8,55.82,22.85,4.97.83,9.99,1.38,15.02,1.65,37.53,1.6,81.53-60.74,119.32-25.32.68.64,1.36,1.31,2,1.99,34.2,36.78,15.05,100.65,34.99,143.24,15.84,33.82,39.89,10.5,62.12,2.07,24.01-9.1,44.56,19.68,57.85,36.16,11.45,14.19,22.84,29.37,33.49,44.48,16.13,22.89,18.28,62.14,40.98,79.34"/>
          <path id="Path_10" data-name="Path 10" class="cls-1" d="m92.88,199.27c3.08,17.26,13.88,30.98,24.85,42.95,14.88,16.22,41.14,18.19,60.76,28.16,10.06,5.11,15.41,12.02,18.45,20.58,7.47,21.11,15.31,41.47,31.09,58.03,4.8,5.04,9.72,10.63,14.24,16.16,16.65,20.33,26.91,37.55,21.39,61.89-5.07,22.33-16.77,47.96-23.45,71.67-9.23,32.79-17.5,69.45-7.58,98.96,5.28,16.03,15.16,30.15,28.41,40.6,16.14,12.37,35.1,20.53,55.17,23.74,4.68.77,9.96,1.71,15.15,1.27,36.7-3.16,82.33-63.39,119.38-25.49.68.69,1.33,1.4,1.95,2.12,32.57,38.12,14.43,99.6,33.7,142.33,15.19,33.69,40.24,9.22,62.32,2.34,23.95-7.47,44.96,23.59,57.93,40.08,11.25,14.31,22.64,29.09,33.33,43.99,16.23,22.62,18.24,60.9,40.25,78.38"/>
          <path id="Path_11" data-name="Path 11" class="cls-1" d="m97.98,195.89c4.76,16.59,16.51,29.34,28.08,40.59,15.42,14.99,40.32,16.5,58.01,29,8.3,5.87,12.9,13.24,15.99,21.93,7.59,21.36,15.73,42.3,31.44,59.25,4.81,5.19,9.79,10.81,14.51,16.33,16.83,19.72,28.64,37.04,24.11,60.96-4.09,21.56-15.8,46.6-22.48,69.53-9.49,32.54-17.95,68.48-9.73,98.53,4.23,15.49,12.39,30.62,26.6,42.15,15.82,12.76,34.66,21.25,54.7,24.65,5.03.95,10.2.99,15.24.1,35.61-6.93,83.26-65.73,118.88-24.4.64.74,1.27,1.51,1.88,2.29,30.72,39.4,14.27,97.94,32.85,140.97,14.54,33.66,40.83,7.83,62.7,2.92,24.06-5.4,44.85,26.89,57.94,43.74,11.08,14.26,22.49,28.74,33.17,43.38,16.54,22.67,18.3,58.89,39.5,77.43"/>
          <path id="Path_12" data-name="Path 12" class="cls-1" d="m102.83,192.62c6.35,15.83,18.88,27.96,30.93,38.39,15.29,13.23,39.36,16.11,54.47,30.18,6.9,6.43,10.88,14.29,14.06,23.08,7.81,21.61,16.45,43,32.33,60.17,4.88,5.28,9.98,10.87,14.92,16.36,14.83,16.48,32.78,35.91,26.98,60.09-5.42,22.62-14.74,45.48-21.49,67.73-9.78,32.23-18.6,67.37-11.98,97.79,3.5,16.12,10.58,31.57,24.86,43.61,15.51,13.08,34.52,22.75,54.36,25.45,4.61.62,10.01-.15,15.26-1.65,34.61-9.85,84.16-66.29,117.93-22,.61.8,1.23,1.62,1.83,2.45,28.84,40.25,14.25,96.16,32.3,139.11,14,33.33,41.88,6.37,63.28,3.69,23.93-2.99,44.3,29.62,57.85,47.21,10.93,14.17,22.33,28.3,33.01,42.67,16.68,22.44,18.23,57.67,38.74,76.54"/>
          <path id="Path_13" data-name="Path 13" class="cls-1" d="m107.43,189.46c7.77,15,20.87,26.39,33.33,36.38,14.98,12.01,37.22,16.65,50.48,31.55,6.21,6.98,9.29,15.14,12.58,24.01,8.11,21.85,17.4,43.58,33.67,60.81,5.01,5.31,10.28,10.84,15.46,16.25,15.49,16.16,34.29,35.17,29.96,59.24-3.97,22.03-13.54,44.62-20.39,66.31-10.08,31.92-19.39,66.24-14.28,96.85,2.77,16.58,8.76,32.49,23.13,44.97,15.12,13.13,34.56,24.76,54.05,25.43,4.47.15,9.97-1.33,15.24-3.22,34.75-12.42,83.98-65.7,116.65-18.4.58.84,1.19,1.72,1.77,2.59,27.01,40.86,14.43,94.17,31.99,136.85,13.52,32.88,43.47,4.95,64.05,4.64,23.56-.36,43.24,31.83,57.68,50.46,10.86,14.01,22.18,27.84,32.85,41.85,16.85,22.13,18.15,56.46,37.96,75.71"/>
          <path id="Path_14" data-name="Path 14" class="cls-1" d="m111.74,186.43c8.99,14.14,22.48,25.1,35.19,34.61,14.4,10.78,34.82,17.81,46.15,33.02,5.5,7.38,8.31,15.71,11.74,24.65,8.47,22.07,18.54,44.08,35.34,61.17,5.18,5.27,10.66,10.71,16.12,15.99,16.31,15.8,35.76,34.17,32.93,58.34-2.54,21.65-12.15,44.03-19.12,65.3-10.36,31.62-20.3,65.14-16.59,95.83,2.04,16.88,6.91,33.38,21.39,46.23,14.51,12.89,33.73,26.41,53.66,24.55,4.56-.42,9.91-2.29,15.19-4.48,35.79-14.81,83.2-63.83,115.11-13.72.57.89,1.16,1.8,1.71,2.71,25.21,41.18,14.76,92.09,31.84,134.26,13.15,32.46,44.71,4.12,64.93,6.02,23.5,2.21,42.43,33.81,57.51,53.17,10.7,13.73,22.06,27.26,32.69,40.95,17.04,21.93,18.04,55.3,37.17,74.95"/>
          <path id="Path_15" data-name="Path 15" class="cls-1" d="m115.75,183.53c9.95,13.27,23.56,23.46,36.44,33.09,14.02,10.48,32.09,19.1,41.99,34.43,4.97,7.71,7.74,16.06,11.31,25.05,8.86,22.27,19.77,44.49,37.28,61.27,5.4,5.18,11.14,10.5,16.88,15.61,17.19,15.3,37.16,32.77,35.78,57.29-1.21,21.56-10.51,43.7-17.6,64.73-10.58,31.4-21.24,64.15-18.84,94.82,1.33,17.06,5.08,34.29,19.61,47.4,14.24,12.85,32.55,27.14,53.1,22.92,5.22-1.28,10.29-3.1,15.12-5.45,37.29-16.92,82.34-60.48,113.4-8.07.55.93,1.12,1.87,1.66,2.82,23.37,41.07,15.17,90,31.81,131.41,12.89,32.08,45.49,3.66,65.84,7.78,23.73,4.8,41.78,35.48,57.41,55.35,10.55,13.41,21.95,26.61,32.52,39.96,17.24,21.77,17.93,54.18,36.36,74.3"/>
          <path id="Path_16" data-name="Path 16" class="cls-1" d="m119.44,180.76c10.59,12.35,24.07,22.23,36.68,32.02,13.57,10.54,29.66,20.09,38.69,35.46,4.65,7.92,7.54,16.2,11.25,25.2,9.26,22.45,21.02,44.8,39.36,61.12,5.67,5.04,11.68,10.21,17.72,15.11,18.14,14.69,38.3,30.85,38.37,56.01.06,21.81-8.61,43.73-15.75,64.61-10.64,31.13-22.17,63.35-21,93.97.65,17.15,3.37,35.16,17.81,48.5,14.31,13.22,31.53,26.41,52.26,20.61,5.17-1.63,10.19-3.68,15.03-6.12,39.09-18.71,81.56-55.65,111.59-1.59.53.96,1.09,1.94,1.61,2.91,21.53,40.53,15.6,87.93,31.83,128.38,12.74,31.74,46.03,3.33,66.82,9.8,24.01,7.47,41.21,36.83,57.34,57.07,10.42,13.07,21.86,25.89,32.36,38.9,17.46,21.63,17.83,53.13,35.54,73.76"/>
          <path id="Path_17" data-name="Path 17" class="cls-1" d="m122.96,178.06c10.94,11.58,23.94,21.36,36.2,31.25,13.17,10.62,27.53,21.05,36.08,36.19,4.52,8,7.66,16.15,11.5,25.13,9.66,22.59,22.22,45.03,41.49,60.73,5.97,4.87,12.29,9.84,18.64,14.49,21.23,15.51,35.64,30.16,39.97,54.32,3.65,20.35-5.88,44.27-12.96,65.03-10.49,30.74-23.01,62.79-23,93.38,0,17.26,2.13,35.85,15.99,49.57,13.4,13.26,31.5,24.19,51.05,17.75,5.1-1.86,10.09-4.04,14.92-6.52,41.05-20.02,80.95-49.36,109.73,5.6.52.99,1.05,1.99,1.55,2.99,19.9,39.78,15.98,85.91,31.85,125.24,12.71,31.5,46.36,2.96,67.87,12,24.24,10.19,40.68,37.9,57.31,58.38,10.32,12.7,21.8,25.12,32.18,37.77,17.68,21.54,17.73,52.17,34.69,73.37"/>
          <path id="Path_18" data-name="Path 18" class="cls-1" d="m126.34,175.43c11.04,10.98,23.58,20.56,35.29,30.67,12.8,11.07,25.48,21.74,34.11,36.65,4.61,7.96,8.15,15.91,12.1,24.85,10.05,22.7,23.29,45.19,43.54,60.11,6.31,4.65,13.04,9.56,19.51,13.73,20.61,13.31,33.75,30.37,39.51,52.27,5.5,20.91-1.33,44.87-8.18,65.86-9.91,30.37-22.2,61.18-24.78,93.18-1.37,17.04.77,37.91,14.2,50.65,13.3,12.62,31.14,20.96,49.36,14.44,4.27-1.53,9.55-4.12,14.8-6.64,43.02-20.72,80.57-41.68,107.88,13.35.5,1.01,1.02,2.03,1.5,3.05,18.41,38.88,16.24,83.92,31.82,122.05,12.82,31.36,46.54,2.41,69,14.33,24.39,12.94,40.11,38.68,57.31,59.27,10.27,12.31,21.75,24.3,32,36.59,17.91,21.47,17.66,51.32,33.83,73.13"/>
          <path id="Path_19" data-name="Path 19" class="cls-1" d="m129.52,172.88c11.02,10.45,23.1,20.04,34.18,30.18,12.2,11.17,23.96,22.57,32.82,36.81,4.89,7.82,9.27,15.96,13.09,24.35,10.39,22.76,24.17,45.26,45.4,59.28,6.67,4.4,13.12,9.1,18.96,13.09,19.21,13.12,31.53,29.17,38.49,49.94,7.02,20.96,2.7,45.42-2.72,66.53-7.78,30.35-21.71,61.72-25.27,93.6-1.83,16.47-1.36,39.36,12.19,50.78,12.8,10.8,30.12,18.12,47.36,11.8,4.18-1.53,9.45-4.11,14.66-6.51,44.83-20.66,80.42-32.8,106.1,21.54.48,1.03,1.01,2.07,1.44,3.09,15.87,37.13,16.53,81.97,31.71,118.87,11.02,26.77,51.63,8.08,70.21,16.72,22.84,10.62,39.6,38.92,57.31,59.78,10.24,12.06,21.71,23.42,31.82,35.37,18.14,21.43,17.63,50.6,32.94,73.08"/>
          <path id="Path_20" data-name="Path 20" class="cls-1" d="m132.56,170.39c10.94,9.97,22.48,19.34,32.98,29.71,11.67,11.53,22.84,23.26,32.26,36.66,5.35,7.62,10.46,14.91,14.56,23.63,10.75,22.91,25.3,44.28,46.42,58.47,6.22,4.18,11.83,8.89,17.13,12.7,16.63,11.93,30.88,27.59,37.43,47.31,7.24,21.77,5.97,44.75,2.05,66.07-5.65,30.79-20.35,64.46-23.3,95.07-1.55,16.04-3.44,38.59,9.54,49.28,11.35,9.35,28.64,16.88,45.35,10.94,4.09-1.45,9.34-3.92,14.52-6.12,46.34-19.71,80.49-22.93,104.42,30.01.47,1.04.97,2.1,1.39,3.12,14.73,36.14,16.41,80.09,31.48,115.77,10.84,25.66,52.9,9.45,71.51,19.12,22.67,11.79,39.23,39.25,57.33,59.91,10.17,11.6,21.66,22.52,31.65,34.06,18.45,21.34,17.63,50.09,32,73.29"/>
          <path id="Path_21" data-name="Path 21" class="cls-1" d="m135.49,167.95s10.75,7.58,31.81,29.25c11.15,11.47,22.22,23.8,32.48,36.18,6.07,7.33,12.65,14.14,16.65,22.68,10.54,22.44,24.95,42.98,44.96,58.11,5.58,4.21,10.68,8.69,15.54,12.31,15.58,11.62,29.46,25.96,36.48,44.5,8.02,21.21,8.6,43.43,6.11,64.69-3.63,30.94-16.43,64.82-19.99,95.6-1.76,15.19-4.86,38.2,7.13,47.9,10.63,8.6,26.8,17.14,43.25,11.78,4-1.3,9.22-3.57,14.36-5.5,47.41-17.8,80.74-12.36,102.89,38.61.45,1.05.94,2.11,1.34,3.14,13.68,35.16,16.04,78.28,31.1,112.81,5.99,13.72,14.3,13.8,26.85,15.18,19.66,2.16,28.31-3.73,46.04,6.3,22.38,12.66,39.09,39.41,57.35,59.66,10.04,11.14,21.83,21.65,31.56,32.72,18.47,21.04,17.62,49.83,30.95,73.74"/>
          <path id="Path_22" data-name="Path 22" class="cls-1" d="m138.37,165.53s10.65,6.95,30.75,28.73c10.91,11.83,22.04,23.99,33.49,35.35,7.01,6.95,15.12,13.22,19.1,21.58,10.19,21.38,22.46,42.69,41.26,58.25,5.03,4.16,9.74,8.49,14.24,11.94,14.64,11.23,28.37,24.17,35.73,41.62,8.6,20.39,10.56,41.79,9.41,62.63-1.69,30.74-11.86,64.29-16.19,94.94-2.06,14.61-6.53,36.83,5.49,46.98,13.16,11.12,23.75,16.08,41.13,13.9,3.78-.47,9.11-3.07,14.2-4.65,47.95-14.94,81.09-1.5,101.54,47.2.44,1.05.91,2.11,1.29,3.14,12.74,34.24,15.38,76.56,30.55,110.04,6.25,13.8,14.71,13.28,27.3,14.93,20.13,2.64,29.05-2.02,47.05,8.84,22.06,13.3,38.99,39.24,57.37,59.05,9.98,10.75,22.02,20.59,31.52,31.58,18.4,21.28,17.68,49.63,29.81,74.24"/>
          <path id="Path_23" data-name="Path 23" class="cls-1" d="m141.25,163.12s10.52,6.37,29.88,28.13c10.86,12.2,22.5,23.99,35.34,34.17,8.18,6.49,15.71,12.68,19.57,21.11,9.81,21.44,19.7,42.13,37.71,58.26,4.57,4.1,9.01,8.37,13.23,11.59,14.9,11.37,26.77,23.22,35.3,38.77,9.58,17.45,11.96,40.04,11.97,60.11.02,30.13-8.13,62.9-12.16,93.22-1.88,14.16-6.78,36.29,4.51,46.38,10.21,9.13,22.24,20.17,39.03,17.02,3.95-.74,8.98-2.42,14.04-3.6,47.9-11.2,81.48,9.23,100.38,55.62.43,1.05.87,2.11,1.24,3.13,11.9,33.41,14.39,74.94,29.8,107.52,6.55,13.85,15.18,12.78,27.85,14.67,20.57,3.08,29.8-.28,48.06,11.25,21.72,13.72,38.87,38.87,57.39,58.07,10,10.36,22.22,19.66,31.52,30.67,18.28,21.66,17.62,49.6,28.59,74.81"/>
          <path id="Path_24" data-name="Path 24" class="cls-1" d="m144.13,160.69s10.38,5.88,29.28,27.42c11.35,12.94,23.99,23.03,38,32.62,8.86,6.06,14.26,12.94,17.81,21.41,8.87,21.19,17.68,41.87,34.69,58.11,3.96,3.97,8.13,7.72,12.48,11.25,14.22,10.8,26.56,21.59,35.32,36.06,9.81,16.19,12.87,38.21,13.82,57.36,1.47,29.23-4.72,60.9-8.18,90.61-1.62,13.94-6.59,35.73,4.1,45.99,10.03,9.63,19.6,22.47,36.98,20.84,3.91-.37,8.81-1.67,13.86-2.36,47.55-6.53,81.67,19.04,99.45,63.71.41,1.04.85,2.09,1.19,3.1,11.18,32.73,13.06,73.47,28.84,105.29,6.9,13.92,15.72,12.25,28.5,14.41,20.87,3.53,30.78,1.6,49.04,13.52,21.37,13.95,38.7,38.52,57.4,56.72,10.1,9.83,22.43,19.02,31.56,30.04,18.17,21.93,17.59,49.73,27.25,75.56"/>
          <path id="Path_25" data-name="Path 25" class="cls-1" d="m147.07,158.25s10.23,5.47,29.01,26.56c11.54,12.96,26.79,21.66,39.96,31.19,7.72,5.58,12.28,13.42,15.53,21.95,8.02,21.06,15.86,41.64,32.11,57.89,3.75,3.91,7.75,7.57,11.99,10.95,13.55,10.18,26.54,20.57,35.9,33.57,10.56,14.68,13.11,36.14,15.05,54.55,2.99,28.43-2.32,58.63-4.55,87.26-1.1,14.09-5.4,35.31,4.14,45.71,9.47,10.33,16.99,24.8,35,25.12,3.88.07,8.67-.78,13.68-.94,46.36-1.51,81.92,28.25,98.74,71.3.4,1.03.79,2.05,1.15,3.06,11.69,33.11,11.11,71.72,27.65,103.4,7.3,13.98,16.33,11.72,29.24,14.13,21.05,3.93,31.85,3.52,50.01,15.62,21.03,14.02,38.4,37.65,57.41,54.96,10.38,9.45,22.63,18.69,31.62,29.75,18.01,22.15,17.61,49.97,25.84,76.37"/>
          <path id="Path_26" data-name="Path 26" class="cls-1" d="m150.09,155.77s10.1,5.17,29.12,25.54c11.71,12.54,28.46,19.7,40.62,30.16,6.77,5.82,10.58,13.82,13.52,22.42,7.19,21.02,14.17,41.5,29.9,57.69,3.61,3.88,7.53,7.45,11.74,10.68,13.44,9.7,27.4,19.27,37.14,31.4,10.93,13.6,13.31,34.12,15.77,51.85,3.73,26.88-.05,55.87-1.54,83.33-.77,14.15-4.68,34.69,4.53,45.45,9.61,11.24,14.89,27,33.1,29.62,3.77.54,8.51.21,13.48.63,44.71,3.79,82.06,36.27,98.26,78.22.39,1.01.77,2.02,1.11,3.01,11.29,32.8,8.99,70.62,26.23,101.9,7.74,14.04,17,11.19,30.08,13.82,21.14,4.26,32.93,5.4,50.94,17.55,20.67,13.94,38.02,36.22,57.41,52.87,10.8,9.27,22.82,18.6,31.72,29.78,17.8,22.36,17.68,50.33,24.36,77.24"/>
          <path id="Path_27" data-name="Path 27" class="cls-1" d="m153.21,153.25s10.01,5.42,29.65,24.34c12.05,11.61,28.86,17.47,40.15,29.5,5.98,6.37,9.19,14.19,11.81,22.82,6.35,20.94,12.56,41.53,28,57.6,3.55,3.86,7.47,7.36,11.71,10.45,13.67,9.34,28.59,18.16,39.15,29.61,11.52,12.49,14.01,32.52,16.14,49.43,3.19,25.27,1.32,52.69.53,78.99-.43,14.24-3.86,34.88,5.12,45.14,9.67,11.05,12.97,29.72,31.27,34.15,3.66.89,8.33,1.26,13.28,2.34,42.84,9.3,82.02,42.7,98.02,84.31.38.99.78,2,1.07,2.95,9.46,31.42,7.19,70.68,24.58,100.83,6.22,10.78,14.11,11.2,25.03,13.56,23.01,4.97,37.85,5.52,57.82,19.21,20.38,13.97,37.67,34.46,57.48,50.6,11.29,9.2,22.94,18.66,31.76,30,17.55,22.57,17.79,50.84,22.83,78.16"/>
          <path id="Path_28" data-name="Path 28" class="cls-1" d="m156.46,150.67s10.12,6.27,30.63,22.95c11.98,9.74,28.71,16.57,38.75,29.19,5.31,6.67,8.11,14.49,10.41,23.15,5.55,20.9,11.01,41.74,26.37,57.65,3.55,3.88,7.54,7.32,11.89,10.27,14.51,9.11,30.8,16.71,42.05,28.27,11.62,11.94,14.38,30.58,16.35,47.4,2.79,23.79,1.55,49.67,1.37,74.43-.1,14.33-3.02,33.93,5.77,44.7,9.95,12.2,11.5,31.57,29.47,38.54,3.58,1.39,8.11,2.33,13.05,4.16,41.15,15.22,81.69,47.16,97.99,89.38.37.96.77,1.95,1.04,2.88,9.08,31.16,4.55,70.5,22.71,100.23,6.59,10.79,14.7,10.71,25.8,13.17,23.24,5.17,38.9,7.1,58.94,20.76,20.09,13.69,38.25,33.11,57.64,48.3,11.3,8.85,23.98,18.96,31.73,30.28,15.76,23.02,17.78,50.13,21.23,79.13"/>
          <path id="Path_29" data-name="Path 29" class="cls-1" d="m159.85,148.03s10.26,5.92,32.08,21.34c12.03,8.5,27.68,16.39,36.56,29.18,4.78,6.88,7.32,14.72,9.33,23.4,4.85,20.93,9.52,42.13,24.98,57.89,3.63,3.91,7.76,7.32,12.28,10.16,15.52,9.01,33.37,16.15,45.92,27.51,12.57,11.38,15.13,28.7,16.66,45.82,2,22.39.48,46.73.68,69.83.12,14.34-2.27,32.85,6.34,44.09,10.26,13.39,10.3,33.2,27.68,42.64,3.49,1.9,7.91,3.46,12.82,6.08,38.94,20.73,81.42,50.36,98.18,93.26.36.93.71,1.87,1.01,2.79,10.76,32.66.73,69.77,20.63,100.14,7.08,10.81,15.35,10.2,26.64,12.76,23.43,5.31,39.91,8.57,60.02,22.1,19.84,13.35,38.88,31.16,57.86,46.03,11.3,8.85,24,19.15,31.63,30.62,15.47,23.26,18.02,50.77,19.58,80.15"/>
          <path id="Path_30" data-name="Path 30" class="cls-1" d="m163.39,145.33s11.62,4.23,33.88,19.59c11.87,8.2,25.93,16.63,33.89,29.37,4.4,7.05,6.82,14.86,8.58,23.56,4.27,21.01,8.13,42.71,23.82,58.33,3.79,3.96,8.11,7.37,12.84,10.13,16.43,9.02,35.76,14.16,49.22,28.2,12.56,13.1,16.87,27.52,18.38,43.93,1.86,20.23-1.69,43.66-1.28,65.42.27,14.36-1.76,31.66,6.66,43.26,10.56,14.55,9.26,34.59,25.82,46.32,3.39,2.4,7.56,4.72,12.67,8.1,36.1,23.91,81.49,53.37,98.43,95.71.36.89.7,1.8.99,2.69,10.78,32.74-2.68,70.36,18.34,100.59,7.51,10.8,16.05,9.67,27.56,12.31,23.55,5.4,40.88,9.92,61.03,23.23,19.59,12.93,39.61,28.93,58.14,43.8,11.32,9.08,23.98,19.38,31.48,31,15.15,23.48,18.27,51.59,17.89,81.22"/>
          <path id="Path_31" data-name="Path 31" class="cls-1" d="m167.1,142.56s14.01,2.85,35.23,17.99c11.39,8.12,24.36,16.86,31.7,29.46,4.18,7.16,6.61,14.92,8.2,23.64,3.84,21.14,6.91,43.45,22.9,58.97,3.98,4.07,8.56,7.5,13.58,10.18,17.55,8.76,37,14.36,50.94,29.57,11.98,13.07,17.55,27.09,19.98,43.08,2.87,18.86-1.54,40.85-1.84,60.92-.21,13.7-1.38,30.68,6.57,42.19,10.77,15.6,8.32,35.81,23.84,49.49,3.28,2.89,7.76,6.1,12.87,10.01,33.79,25.76,81.4,55.62,98.48,96.76.35.85.69,1.73.98,2.59,10.89,32.83-6.33,71.52,15.87,101.61,7.89,10.69,16.82,9.23,28.52,11.92,23.64,5.45,41.76,10.99,62.02,24.05,19.33,12.45,40.45,26.83,58.47,41.66,11.31,9.31,23.92,19.65,31.28,31.43,14.8,23.68,18.52,52.57,16.15,82.31"/>
          <path id="Path_32" data-name="Path 32" class="cls-1" d="m170.97,139.71s15.63.56,36.1,16.52c11.66,9.09,23.1,16.78,30.16,29.39,4.09,7.34,6.85,15.34,8.17,23.63,3.59,21.27,5.95,44.35,22.25,59.77,4.19,3.96,8.86,7.89,14.48,10.35,17.87,7.83,37.62,15.52,51.09,31.36,11.3,13.3,18.47,28.15,21.08,43.36,2.94,17.08.23,37.88-.56,56.77-.66,15.72-1.31,31.17,5.88,40.88,11.44,15.46,9.98,37.58,21.89,52.08,2.78,3.39,7.82,7,12.93,11.35,31.65,26.98,81.22,57.01,98.52,96.63.35.81.69,1.65.97,2.47,11.17,32.98-10.23,73.25,13.24,103.23,8.23,10.51,17.64,8.83,29.48,11.56,23.72,5.47,42.58,11.85,63,24.61,19.2,12,41.14,24.91,58.84,39.63,11.35,9.44,23.83,19.97,31.04,31.89,14.44,23.86,18.74,53.69,14.38,83.44"/>
          <path id="Path_33" data-name="Path 33" class="cls-1" d="m175.01,136.79s16.9-.34,36.61,15.17c11.18,8.8,22.04,16.53,29.28,29.16,4.25,7.26,7.14,15.23,8.53,23.53,3.53,21.3,5.38,45.37,21.9,60.71,4.46,4.27,9.62,7.73,15.26,10.23,18.48,7.88,37.12,17.3,49.94,33.76,10.26,13.17,18.98,29.06,21.67,44.66,2.91,16.88,2.43,35.53,1.74,53.24-.57,14.7-2.23,28.55,5.4,39.8,11.07,16.33,8.58,38.27,19.9,53.43,2.72,3.64,7.74,7.68,12.81,12.41,29.83,27.86,80.64,57.44,98.56,95.35.37.77.72,1.59,1.01,2.39,12.02,33.22-14.54,75.35,10.41,105.4,8.52,10.27,18.5,8.48,30.45,11.22,23.79,5.45,43.33,12.5,63.94,24.93,19.22,11.59,41.72,23.09,59.23,37.73,11.39,9.52,23.72,20.3,30.78,32.37,14.08,24.04,18.91,54.95,12.57,84.59"/>
          <path id="Path_34" data-name="Path 34" class="cls-1" d="m179.22,133.8s17.71-1.09,36.87,13.92c10.83,8.48,21.37,16.19,29.05,28.76,4.56,7.11,7.71,15.03,9.27,23.33,3.69,21.1,5.14,46.16,21.72,61.32,4.4,4.19,9.4,7.7,14.84,10.41,18.38,8.69,36.5,19.27,48.72,36.45,10.15,14.09,17.54,29.98,21.76,46.82,3.72,15.47,4.43,33.58,4.26,50.46-.14,13.82-2.4,26.57,5.56,38.69,10.73,16.32,7.55,38.58,17.96,53.83,2.62,3.84,7.61,8.24,12.63,13.3,17.26,17.4,36.11,33.79,54.52,50.19,14.35,12.79,35.49,25.43,44.09,43.16.38.77.75,1.58,1.04,2.37,12.42,33.53-18.75,77.79,7.44,107.71,8.7,9.93,19.45,8.21,31.4,10.92,23.84,5.42,44.03,12.95,64.85,25.01,19.34,11.2,42.24,21.33,59.63,35.99,11.41,9.61,23.58,20.65,30.49,32.88,13.72,24.26,19.03,56.3,10.74,85.77"/>
          <path id="Path_35" data-name="Path 35" class="cls-1" d="m183.59,130.74s18.12-1.72,36.97,12.73c10.61,8.13,21.1,15.76,29.5,28.21,4.82,7.14,8.78,14.65,10.45,23.01,4.1,20.59,4.86,45.99,20.54,61.68,4.16,4.37,8.96,8.07,14.23,11,18.24,9.57,36.71,21.42,47.62,39.08,9.64,15.61,17.29,32.2,21.6,49.51,3.8,15.96,6,32.26,6.56,48.66.51,13.05-1.97,24.96,6.24,37.46,10.23,15.57,6.86,38.68,16.24,53.65,2.49,3.98,7.45,8.69,12.41,14.02,16.76,18.04,35.4,35.13,54.25,51.19,14.01,11.94,35.86,22.68,44.29,39.68.38.77.76,1.57,1.06,2.36,12.82,33.81-22.8,80.32,4.47,110.03,8.73,9.51,20.49,8.01,32.33,10.66,23.01,5.02,45.15,13.41,65.71,24.88,19.56,10.84,42.71,19.66,60.06,34.43,11.39,9.7,23.42,21.02,30.19,33.4,13.37,24.5,19.08,57.73,8.9,86.96"/>
          <path id="Path_36" data-name="Path 36" class="cls-1" d="m187.99,127.69s18.32-2.3,37.11,11.52c10.54,7.75,21.22,15.23,30.62,27.49,5.37,7.01,10.04,14.22,11.59,22.39,3.86,20.43,3.84,45.92,18.6,62.23,3.91,4.57,8.51,8.5,13.62,11.65,18.97,11.01,34.74,23.87,46.69,41.57,10.16,15.05,17.47,34.18,21.34,52.41,3.31,15.62,6.69,31.92,8.36,47.96,1.3,12.42-1.2,23.55,7.33,36.24,9.83,14.62,6.48,38.55,14.85,53.02,2.36,4.08,7.25,9.04,12.13,14.59,16.44,18.73,34.46,36,53.88,51.62,14.11,11.3,35.9,19.66,44.46,36.36.39.77.78,1.56,1.09,2.35,13.5,34.14-26.83,83.04,1.52,112.32,8.84,9.12,21.42,7.84,33.22,10.46,23.2,5.09,45.58,13.34,66.53,24.54,19.81,10.52,43.01,18,60.5,33.07,11.39,9.82,23.27,21.37,29.87,33.93,13.04,24.79,19.07,59.21,7.04,88.16"/>
          <path id="Path_37" data-name="Path 37" class="cls-1" d="m192.27,124.68s18.52-2.89,37.52,10.23c10.62,7.33,21.73,14.61,32.37,26.61,6.08,6.85,10.52,13.71,11.95,21.66,3.67,20.28,2.88,45.82,16.65,62.77,3.78,4.65,7.92,9.11,13.03,12.37,18.7,11.95,34.27,25.61,46,43.82,10.3,15.99,17.49,36.06,21.11,55.27,3.02,15.99,6.58,32.26,9.44,48.45,2.11,11.93-.17,22.43,8.72,35.13,9.56,13.65,6.36,38.17,13.86,52.07,2.24,4.15,7.03,9.3,11.81,15.02,15.57,18.63,33.71,36.96,53.39,51.48,14.49,10.69,35.75,16.5,44.6,33.27.41.76.78,1.54,1.11,2.34,13.92,34.35-30.29,86.39-1.35,114.51,8.89,8.63,22.19,7.69,34.06,10.33,23.34,5.17,45.94,13.24,67.27,24.01,20.19,10.13,43.34,16.51,60.94,31.92,11.37,9.95,23.1,21.73,29.54,34.46,12.71,25.14,18.99,60.73,5.17,89.37"/>
          <path id="Path_38" data-name="Path 38" class="cls-1" d="m196.47,121.69s18.71-3.48,38.19,8.88c10.85,6.88,23.58,14.06,34.49,25.55,6.21,6.54,10.46,13.22,11.8,20.94,3.51,20.24,2.1,45.61,14.69,63.2,3.52,4.92,7.49,9.66,12.44,13.13,18.36,12.86,33.9,27.16,45.59,45.74,10.56,16.79,17.96,37.78,21.05,57.82,2.59,16.78,5.56,33.53,9.62,50.15,2.83,11.55,1,21.7,10.3,34.27,9.44,12.77,6.59,37.14,13.32,50.94,2.06,4.22,6.74,9.63,11.43,15.31,16.14,19.55,35.13,40.58,57.61,54.01,14.22,8.5,31.28,11.54,39.87,27.27.42.76.8,1.53,1.14,2.33,14.37,34.62-33.32,90.65-4.1,116.57,8.91,7.9,22.73,7.53,34.82,10.29,23.42,5.33,46.2,13.14,67.95,23.32,20.7,9.64,43.71,15.24,61.39,30.98,11.34,10.09,21.92,21.73,29.21,35.01,13.81,25.14,18.11,64.33,3.31,90.58"/>
          <path id="Path_39" data-name="Path 39" class="cls-1" d="m200.61,118.71c13.51-1.82,27.25.8,39.15,7.46,12.67,7.03,26.01,14.26,36.38,24.35,6.2,6.02,10.31,12.72,11.67,20.3,3.71,20.6,1.18,45.05,12.79,63.45,3.27,5.19,7.06,10.22,11.88,13.9,17.96,13.69,33.66,28.48,45.51,47.28,11.33,18.17,18.59,38.57,21.3,59.81,2.07,17.69,3.68,35.63,8.78,53.06,3.38,11.55,2.2,21.42,11.91,33.78,9.47,12.06,6.92,36.46,13.32,49.77,2.03,4.22,6.39,9.73,10.96,15.47,15.44,19.36,33.98,40.42,56.83,52.36,14.75,7.71,31.07,9.34,40.01,25.27.43.75.82,1.52,1.16,2.31,14.74,34.7-36.17,93.53-6.68,118.32,9.06,7.62,23.15,7.62,35.46,10.49,23.44,5.53,46.38,13.04,68.55,22.46,21.39,8.94,44.26,14.33,61.85,30.27,11.3,10.24,21.75,22.07,28.87,35.55,13.53,25.64,17.84,65.85,1.45,91.78"/>
          <path id="Path_40" data-name="Path 40" class="cls-1" d="m204.72,115.74c13.76-2.22,27.87-.14,40.39,5.97,13.24,6.41,27.24,12.97,38.02,23.08,6.2,5.82,10.26,12.35,11.59,19.73,3.69,20.58.4,44.62,10.93,63.51,3.04,5.47,6.64,10.79,11.35,14.67,17.51,14.43,33.56,29.56,45.81,48.37,11.5,17.67,20.08,39.83,21.97,61.01,1.68,18.78,1.18,38.47,6.84,57.1,3.66,12.04,3.29,21.69,13.42,33.77,9.63,11.5,7.43,35.74,13.63,48.69,2.01,4.2,6.16,9.76,10.61,15.51,14.89,19.23,32.75,39.52,55.9,50.13,15.14,6.94,30.91,7.72,40.16,23.76.44.75.83,1.51,1.19,2.3,15.36,34.84-39.21,93.65-9.01,119.63,10.97,9.44,29.59,9.34,44.07,12.71,20.94,4.88,41.21,12.37,60.92,19.81,21.27,8.03,44.91,13.69,62.33,29.79,11.25,10.4,21.58,22.42,28.54,36.1,13.29,26.14,17.54,67.35-.38,92.96"/>
          <path id="Path_41" data-name="Path 41" class="cls-1" d="m208.81,112.78c14.1-2.55,28.64-1.01,41.9,4.42,13.7,5.58,28.3,11.84,39.38,21.79,6.22,5.59,10.24,12.04,11.54,19.24,3.69,20.48-.37,44.12,9.13,63.37,2.83,5.73,6.25,11.32,10.86,15.39,17.05,15.05,33.71,30.39,46.51,48.98,12.69,18.43,21.31,39.78,23.3,61.03,1.8,19.23-2.06,42.1,3.65,62.34,3.65,12.93,4.14,22.58,14.66,34.38,9.92,11.12,8.06,35.06,14.2,47.81,2,4.16,6.12,9.49,10.41,15.45,14.17,19.67,32.01,38.09,54.82,47.34,15.36,6.23,30.94,6.87,40.35,22.79.45.74.85,1.51,1.21,2.29,16.11,35.73-41.44,93.78-11.24,120.87,10.94,9.81,29.97,9.86,44.66,13.23,20.91,4.79,41.33,12.03,61.19,18.69,21.51,7.21,45.54,13.24,62.81,29.55,11.2,10.58,22.25,23.11,28.21,36.64,11.73,26.64,18.27,67.43-2.2,94.12"/>
          <path id="Path_42" data-name="Path 42" class="cls-1" d="m212.91,109.81c15.29-3.6,29.31-1.23,43.66,2.8,14.1,3.96,29.14,10.75,40.47,20.56,6.24,5.41,10.25,11.8,11.53,18.84,3.7,20.35-1.22,43.9,7.38,63.05,2.59,5.76,5.9,11.81,10.42,16.04,16.58,15.55,33.53,30.9,47.69,49.14,14.42,18.58,24.56,38.98,25.92,60.4,1.28,20.26-6.22,45.71-1.31,67.83,3.17,14.29,4.56,24.17,15.46,35.7,13.36,14.13,4.63,31.5,14.98,47.28,2.57,3.92,6.21,9.37,10.37,15.3,13.94,19.86,30.6,35.75,53.46,44.07,15.51,5.64,31.28,6.7,40.74,22.35.45.74.86,1.5,1.23,2.28,16.87,36.61-43.46,93.84-13.33,122.04,10.89,10.19,30.33,10.34,45.21,13.68,20.85,4.68,41.3,11.43,61.35,17.48,21.93,6.62,46.12,12.93,63.31,29.54,11.14,10.76,22.05,23.52,27.88,37.19,11.54,27.1,17.98,68.9-3.98,95.26"/>
          <path id="Path_43" data-name="Path 43" class="cls-1" d="m217.02,106.84c15.75-4.12,30.7-2.39,45.63,1.13,14.22,3.35,29.77,9.7,41.32,19.4,6.29,5.28,10.29,11.64,11.57,18.53,3.75,20.24-1.85,43.37,5.69,62.76,2.27,5.85,5.58,12.07,10.04,16.47,16.39,16.15,34.17,31.77,50.05,49.25,16.42,18.08,27.91,38,28.83,59.52.9,21.11-10.83,48.62-7.53,72.38,2.25,16.22,4.39,26.55,15.65,37.88,13.92,14.01,5.42,31.47,15.89,47.21,2.57,3.87,6.24,9.24,10.39,15.07,13.79,19.37,29.29,33.37,51.97,40.83,15.67,5.15,31.74,6.55,41.3,22.02.46.73.88,1.49,1.25,2.27,17.59,37.41-45.26,93.85-15.29,123.11,10.82,10.56,30.66,10.79,45.74,14.07,20.77,4.53,41.16,10.67,61.42,16.26,22.45,6.2,46.67,12.75,63.82,29.71,11.07,10.94,21.84,23.93,27.54,37.73,11.39,27.58,17.67,70.31-5.72,96.36"/>
          <path id="Path_44" data-name="Path 44" class="cls-1" d="m221.17,103.86c16.27-4.65,32.14-3.58,47.71-.54,14.31,2.8,30.26,8.72,42,18.33,6.35,5.2,10.35,11.54,11.64,18.31,3.82,20.15-2.43,42.89,4.08,62.5,1.97,6.21,5.27,11.92,9.67,16.72,16.52,17.11,35.99,32.7,53.6,49.31,18.15,17.11,29.92,35.78,31.66,58.41,1.84,24-14.19,49.96-14.4,75.52-.12,14.7,4.78,30.9,15.02,41.02,14.39,14.21,6.29,32.03,16.86,47.73,2.58,3.83,6.25,9.08,10.39,14.79,13.75,18.96,28.29,31.03,50.71,37.73,15.79,4.72,32.14,6.42,41.78,21.73.47.73.89,1.49,1.27,2.26,18.25,38.09-46.86,93.83-17.09,124.07,20.36,20.69,78.17,21.93,107.69,29.54,22.82,5.88,47.16,12.64,64.26,29.95,11,11.14,21.63,24.35,27.21,38.27,11.26,28.07,17.37,71.67-7.41,97.42"/>
          <path id="Path_45" data-name="Path 45" class="cls-1" d="m225.35,100.87c15.85-5.02,33.38-5.42,49.54-2.12,15.1,3.08,30.91,7.68,42.88,17.28,6.42,5.15,10.44,11.51,11.75,18.19,3.93,20.09-2.93,42.5,2.56,62.28,1.71,6.28,4.89,12.05,9.28,16.86,17.08,18.11,39.74,33.1,58.1,49.26,16.88,14.84,34.19,32.63,34.29,57.16.12,27.06-17.99,52.64-20.43,77.33-1.59,16-.36,32.35,12.53,44.71,14.94,14.32,6.86,33.06,17.78,48.95,2.6,3.78,6.24,8.9,10.41,14.47,13.79,18.46,27.65,28.76,49.66,34.87,15.89,4.41,32.45,6.27,42.18,21.47.47.73.9,1.48,1.29,2.26,18.86,38.71-48.24,93.74-18.74,124.9,20.09,21.22,78.6,21.51,108.17,28.8,23.04,5.68,47.6,12.59,64.62,30.26,10.92,11.34,21.4,24.79,26.88,38.81,11.17,28.57,17.08,72.96-9.05,98.43"/>
          <path id="Path_46" data-name="Path 46" class="cls-1" d="m229.57,97.87c16.31-5.5,34.5-6.5,51.28-3.73,15.31,2.53,31.59,6.75,43.79,16.39,6.51,5.14,10.56,11.56,11.91,18.18,4.07,20.07-3.36,42.2,1.14,62.15,1.42,6.33,4.47,12.18,8.85,16.97,17.92,19.19,43.18,33.09,63.34,48.99,17.61,13.88,36.45,31.12,36.61,55.82.18,28.02-19.45,53.49-25.48,78.63-4,16.67-5.8,34.3,8.49,47.8,15.54,14.68,7.12,34.71,18.56,51,2.62,3.73,6.23,8.71,10.43,14.12,13.83,17.83,27.4,26.56,48.83,32.32,15.98,4.29,32.65,6.07,42.51,21.24.48.72.91,1.48,1.31,2.25,19.6,39.18-49.67,93.67-20.23,125.6,20.2,21.91,78.98,20.95,108.6,28.14,23.1,5.6,47.98,12.6,64.91,30.63,10.84,11.54,21.15,25.23,26.54,39.36,11.1,29.08,16.81,74.18-10.62,99.38"/>
          <path id="Path_47" data-name="Path 47" class="cls-1" d="m233.83,94.87c16.79-5.97,35.43-7.52,52.91-5.35,15.65,1.94,32.29,5.93,44.74,15.66,6.61,5.17,10.71,11.67,12.11,18.28,4.25,20.09-3.73,42.02-.19,62.13,1.08,6.4,3.98,12.36,8.34,17.17,18.61,20.09,47.51,32.83,69.07,48.37,18.11,13.06,38.1,29.73,38.49,54.49.45,28.66-20.4,54.49-29.43,79.43-5.93,16.39-11.62,35.5,3.32,50,15.9,15.44,6.87,37.05,19.01,54,2.65,3.69,6.26,8.53,10.46,13.76,13.67,17.06,27.53,24.7,48.23,30.15,16.05,4.22,32.79,5.88,42.77,21.05.48.72.92,1.47,1.32,2.24,20.16,39.77-50.63,93.45-21.56,126.17,20.04,22.55,79.33,20.43,108.95,27.57,23.13,5.57,48.31,12.67,65.12,31.06,10.75,11.76,20.11,25.32,26.19,39.92,12.39,29.72,15.36,76.71-12.11,100.26"/>
          <path id="Path_48" data-name="Path 48" class="cls-1" d="m238.13,91.85c17.26-6.44,36.27-8.52,54.46-6.95,16.04,1.38,33.02,5.2,45.72,15.08,6.73,5.23,10.84,11.82,12.34,18.48,4.58,20.37-3.85,42.06-1.24,62.27.81,6.27,3.18,12.5,8.19,17.39,20.68,20.15,51.18,31.47,74.43,47.43,18.49,12.7,39.04,28.49,39.82,53.2.92,28.96-20.17,55.18-32.1,79.7-7.47,15.35-17.13,36.85-2.11,51.85,15.97,15.96,5.75,39.69,18.47,57.27,2.67,3.69,6.34,8.35,10.5,13.39,24.16,29.32,71.18,19.71,90.85,49.33.48.72.93,1.47,1.33,2.24,20.7,40.41-51.09,92.98-22.72,126.58,19.27,22.83,79.72,20.23,109.25,27.09,23.38,5.43,48.6,12.81,65.27,31.56,10.65,11.98,19.83,25.76,25.83,40.48,12.37,30.32,15.13,77.72-13.53,101.08"/>
          <path id="Path_49" data-name="Path 49" class="cls-1" d="m242.45,88.83c18.21-7.09,37.03-8.93,55.91-8.54,16.12.34,33.77,4.57,46.73,14.64,6.15,4.7,10.62,11.26,12.73,18.7,5.82,20.59-2.98,42.23-1.26,62.51.39,6.65,3.28,12.9,8.09,17.5,21.77,19.97,54.22,30.51,78.61,46.44,18.65,12.18,39.15,27.47,40.49,52.03,1.59,29.12-19.67,55.65-33.35,79.45-8.52,14.82-22.34,37.73-7.55,53.7,15.41,16.64,3.32,41.85,16.9,60.29,2.7,3.67,6.36,8.19,10.52,13.02,24.3,28.22,71.33,18.77,90.86,48,.49.72.93,1.46,1.34,2.23,21.14,40.94-51.25,92.51-23.73,126.86,18.42,22.98,80.1,20.11,109.47,26.71,23.64,5.31,48.84,13,65.35,32.11,10.69,12.2,19.29,26.08,25.45,41.08,12.38,31.02,14.95,78.63-14.83,101.79"/>
          <path id="Path_50" data-name="Path 50" class="cls-1" d="m246.78,85.81c18.56-7.53,37.91-9.94,57.28-10.08,16.46-.12,34.55,4,47.76,14.32,6.26,4.82,10.98,11.37,13.59,18.83,7.25,20.58-1.71,42.45-.73,62.83.16,6.72,3.05,13.09,8.02,17.63,22.55,19.88,56.47,29.54,81.54,45.46,18.65,11.84,38.33,26.71,40.36,51.03,2.45,29.27-18.15,55.4-33.05,78.71-9.31,14.56-26.93,38.47-12.78,55.48,14.73,17.71-.33,43.2,14.34,62.96,2.73,3.68,6.38,8.06,10.55,12.68,24.55,27.2,71.69,18.44,91.06,47.3.49.72.94,1.46,1.34,2.23,21.44,41.32-51.23,92.06-24.58,126.99,17.58,23.04,80.46,20.09,109.63,26.43,23.92,5.19,49.05,13.24,65.38,32.71,10.54,12.45,19,26.53,25.03,41.69,12.39,31.77,14.84,79.46-16.03,102.42"/>
          <path id="Path_51" data-name="Path 51" class="cls-1" d="m251.11,82.78c18.56-7.74,38.48-11.68,58.58-11.59,16.67.17,34.31,2.8,48.7,14.03,6.48,4.95,11.6,11.46,14.89,18.93,8.67,20.5.1,42.68.24,63.21-.06,6.8,2.85,13.28,7.97,17.76,23.01,19.8,57.93,28.54,83.19,44.5,18.47,11.67,36.5,26.27,39.34,50.25,3.48,29.31-15.43,54.58-31.08,77.55-9.96,14.61-30.66,39.14-17.59,57.11,14.03,19.3-5.21,43.72,10.87,65.19,2.76,3.68,6.35,7.92,10.42,12.42,24.66,27.31,72.12,18.27,91.56,47.23.49.72.94,1.46,1.35,2.23,21.61,41.59-50.98,91.71-25.29,126.98,16.72,22.96,80.78,20.16,109.73,26.26,24.19,5.1,49.21,13.52,65.35,33.36,10.39,12.71,18.7,27,24.6,42.32,12.37,32.46,14.8,80.18-17.13,102.96"/>
          <path id="Path_52" data-name="Path 52" class="cls-1" d="m255.43,79.76c32.37-14.11,79.35-22.01,109.57.59,38.93,29.12-1.31,76.33,25.87,100.6,35.06,31.32,111.76,34.9,120.84,93.32,4.49,28.89-11.14,51.92-26.43,74.68-10.68,15.89-34.78,41.01-22.75,59.87,7.64,11.98.59,20.78-.14,33.2-1.17,20.08,2.34,31.17,16.97,46.48,24.92,26.07,73.4,18.5,92.26,47.31,26.93,41.13-50.07,92.6-24.48,129.02,13.57,19.32,56.23,15.99,79.19,19.92,33.31,5.7,75.06,12.32,95.79,40.39,26.97,36.51,56.25,112,6.03,146.37"/>
        </g>
      </g>
    </g>
  </g>
</svg>