<svg xmlns="http://www.w3.org/2000/svg" xmlns:xlink="http://www.w3.org/1999/xlink" width="2154.068" height="2652.085" viewBox="0 0 2154.068 2652.085">
  <defs>
    <clipPath id="clip-path">
      <rect id="Rectangle_5" data-name="Rectangle 5" width="2526.658" height="961.2" fill="none" stroke="#fff" stroke-width="1"/>
    </clipPath>
    <clipPath id="clip-path-2">
      <rect id="Rectangle_4" data-name="Rectangle 4" width="2526.651" height="961.2" fill="none" stroke="#fff" stroke-width="1"/>
    </clipPath>
  </defs>
  <g id="Group_14" data-name="Group 14" transform="translate(815.143) rotate(58)" opacity="0.75">
    <g id="Group_10" data-name="Group 10" clip-path="url(#clip-path)">
      <g id="Group_9" data-name="Group 9">
        <g id="Group_8" data-name="Group 8" clip-path="url(#clip-path-2)">
          <g id="Group_7" data-name="Group 7" opacity="0.6">
            <g id="Group_6" data-name="Group 6">
              <g id="Group_5" data-name="Group 5" clip-path="url(#clip-path)">
                <path id="Path_105" data-name="Path 105" d="M2525.6,426.551c-40.2,55.692-126.8,53.095-184.594,43.12-81.446-14.052-160.953-53.948-219.037-114.906-135-141.686-267.226-293.228-460.455-292.552-102,.359-236.609,49.873-318.411,115.962-77.124,62.309-120.5,144.04-260.838,211.448-81,38.911-135.145-116.3-217.964-150.863-83.248-34.745-199.1,27.371-277.976-16.184C495.708,172.534,403.6,121.905,301.668,105.5,195.078,88.338,90.5,114.4.214,177.251" transform="translate(0.308 89.509)" fill="none" stroke="#fff" stroke-miterlimit="10" stroke-width="0.75"/>
                <path id="Path_106" data-name="Path 106" d="M2521.483,428.533c-41,55.375-125.717,55-183.99,45.969-80.646-12.5-160.248-50.993-220.5-111.223-16.294-16.286-32.49-32.885-48.854-49.385C1983.109,228.574,1903.787,142.243,1804.448,99,1759.772,79.532,1711.8,67.473,1659.5,66.4c-37.631-.776-79.434,4.951-121.33,16.435-72.452,19.83-144.274,55.907-196.037,98.739-77.1,63.782-122.039,146.939-260.092,212.162C1001.316,431.706,944.107,285.766,861,251.389c-17.837-7.38-37.033-10.67-56.921-11.723-73.305-4.007-156.917,23.159-218.923-11.25-15.94-8.843-31.911-17.728-47.956-26.48-74.632-40.679-151.871-77.883-235.467-91.986C195.6,92.043,91.189,116.812,1.276,181.074" transform="translate(1.836 95.431)" fill="none" stroke="#fff" stroke-miterlimit="10" stroke-width="0.75"/>
                <path id="Path_107" data-name="Path 107" d="M2517.365,430.631c-41.806,55.058-124.632,56.892-183.387,48.817-79.833-10.975-159.509-48.049-221.966-107.538-16.577-15.789-32.985-32.09-49.722-48.256-87.526-84.538-162.26-174.168-260.663-217.857-44.439-19.781-92.242-32.78-144.137-35.1-37.794-1.69-79.529,3-121.283,14.189-72.51,19.366-143.262,56.346-195.04,100.2-77.078,65.257-123.573,149.842-259.346,212.877-80.451,37.035-140.728-99.634-224.117-133.821-17.862-7.326-36.943-10.9-56.6-12.465-72.715-6-155.1,17.284-217.113-17.3-15.894-8.858-31.8-17.779-47.764-26.607C462.24,166.9,385.042,129.214,301.8,114.52c-105.675-18.652-209.926,4.821-299.464,70.5" transform="translate(3.364 101.237)" fill="none" stroke="#fff" stroke-miterlimit="10" stroke-width="0.75"/>
                <path id="Path_108" data-name="Path 108" d="M2513.247,432.852c-42.608,54.741-123.539,58.767-182.784,51.663-79.01-9.472-158.736-45.123-223.432-103.853-16.847-15.3-33.5-31.268-50.588-47.122-90.145-83.646-160.167-176.69-257.636-220.827-44.2-20.088-91.835-34.045-143.328-37.594-37.96-2.617-79.624,1.061-121.239,11.945-72.566,18.905-142.252,56.782-194.042,101.654-77.053,66.73-124.968,153.049-258.6,213.589-80.09,36.284-143.52-91.3-227.2-125.3-17.884-7.27-36.857-11.1-56.278-13.206-72.142-7.833-153.278,11.409-215.3-23.349-15.845-8.875-31.695-17.83-47.571-26.739-73.344-41.057-150.5-79.219-233.385-94.5C196.65,99.814,92.565,121.995,3.4,189.078" transform="translate(4.892 106.917)" fill="none" stroke="#fff" stroke-miterlimit="10" stroke-width="0.75"/>
                <path id="Path_109" data-name="Path 109" d="M2509.131,435.193c-43.41,54.424-122.442,60.628-182.182,54.512-78.18-8-157.934-42.218-224.9-100.168-17.113-14.811-34.021-30.446-51.456-45.993-92.784-82.736-158.075-179.21-254.609-223.8-43.969-20.4-91.433-35.326-142.52-40.086a358.658,358.658,0,0,0-121.193,9.7c-72.622,18.44-141.242,57.219-193.042,103.11-77.032,68.2-126.473,156.022-257.853,214.3-79.79,35.4-146.313-82.965-230.271-116.774-17.908-7.216-36.77-11.321-55.958-13.945-71.559-9.792-151.456,5.534-213.492-29.4q-23.7-13.334-47.381-26.866c-72.7-41.245-149.81-79.887-232.341-95.761-104.761-20.147-208.685.744-297.476,69.235" transform="translate(6.418 112.48)" fill="none" stroke="#fff" stroke-miterlimit="10" stroke-width="0.75"/>
                <path id="Path_110" data-name="Path 110" d="M2505.014,437.649c-44.213,54.107-121.339,62.47-181.58,57.36-77.344-6.56-157.1-39.338-226.358-96.486-17.369-14.33-34.548-29.619-52.324-44.859-95.439-81.814-155.982-181.731-251.583-226.766-43.732-20.705-91.03-36.623-141.711-42.581a339.55,339.55,0,0,0-121.149,7.458c-72.678,17.976-140.23,57.655-192.045,104.568-77.007,69.674-127.985,158.982-257.1,215.016-79.5,34.5-149.105-74.634-233.348-108.253-17.93-7.163-36.682-11.548-55.636-14.686-70.981-11.755-149.637-.341-211.682-35.45q-23.625-13.36-47.188-27c-72.052-41.433-149.122-80.556-231.3-97.017-104.3-20.893-208.063-1.3-296.481,68.6" transform="translate(7.948 117.929)" fill="none" stroke="#fff" stroke-miterlimit="10" stroke-width="0.75"/>
                <path id="Path_111" data-name="Path 111" d="M2500.9,440.209C2455.88,494,2380.663,504.5,2319.919,500.415c-76.5-5.143-156.241-36.479-227.824-92.8-17.618-13.862-35.072-28.792-53.19-43.73-98.107-80.878-153.89-184.25-248.556-229.734-43.5-21.013-90.628-37.938-140.9-45.074-38.467-5.46-79.907-4.775-121.1,5.212-72.737,17.515-139.221,58.094-191.047,106.024-76.983,71.149-129.5,161.928-256.358,215.73-79.209,33.594-151.9-66.3-236.426-99.729-17.952-7.109-36.592-11.777-55.314-15.428-70.4-13.725-147.815-6.216-209.87-41.5q-23.551-13.378-47-27.124c-71.408-41.623-148.437-81.224-230.261-98.278C198.227,112.345,94.63,130.648,6.585,201.961" transform="translate(9.474 123.273)" fill="none" stroke="#fff" stroke-miterlimit="10" stroke-width="0.75"/>
                <path id="Path_112" data-name="Path 112" d="M2496.779,442.86c-45.82,53.473-119.125,66.094-180.373,63.055-75.658-3.753-155.356-33.653-229.29-89.116-17.859-13.4-35.6-27.961-54.058-42.6-100.793-79.926-151.8-186.772-245.53-232.7-43.259-21.322-90.223-39.267-140.1-47.566-38.635-6.431-80-6.721-121.057,2.968-72.793,17.05-138.211,58.528-190.047,107.48C1259.367,277,1205.3,369.238,1080.716,420.823c-78.927,32.682-154.687-57.965-239.5-91.206-17.974-7.053-36.5-12.011-54.992-16.169-69.818-15.706-146-12.092-208.06-47.549q-23.482-13.4-46.8-27.256c-70.764-41.811-147.749-81.892-229.219-99.534C198.75,116.721,95.319,133.731,7.647,206.453" transform="translate(11.002 128.526)" fill="none" stroke="#fff" stroke-miterlimit="10" stroke-width="0.75"/>
                <path id="Path_113" data-name="Path 113" d="M2492.662,445.591c-46.622,53.156-118.013,67.876-179.77,65.9-74.812-2.392-154.446-30.856-230.753-85.431-18.1-12.943-36.136-27.127-54.927-41.464-103.488-78.963-149.7-189.294-242.5-235.675-43.025-21.63-89.818-40.613-139.287-50.061-38.8-7.411-80.1-8.665-121.013.724-72.849,16.586-137.2,58.967-189.05,108.938-76.937,74.1-132.565,167.769-254.865,217.157-78.644,31.758-157.48-49.632-242.579-82.685-18-7-36.418-12.245-54.67-16.911-69.237-17.7-144.176-17.967-206.251-53.6q-23.409-13.426-46.612-27.383c-70.118-42-147.061-82.56-228.176-100.8-102.931-23.134-206.2-7.414-293.5,66.716" transform="translate(12.53 133.697)" fill="none" stroke="#fff" stroke-miterlimit="10" stroke-width="0.75"/>
                <path id="Path_114" data-name="Path 114" d="M2488.545,448.391c-47.425,52.839-116.9,69.64-179.168,68.752-73.964-1.056-153.515-28.092-232.219-81.748-18.325-12.491-36.669-26.29-55.794-40.333-106.195-77.978-147.61-191.813-239.472-238.643-42.791-21.937-89.413-41.972-138.482-52.553-38.969-8.407-80.19-10.611-120.967-1.522-72.908,16.125-136.189,59.4-188.052,110.394-76.912,75.571-134.107,170.669-254.119,217.872-78.368,30.824-160.27-41.3-245.654-74.161-18.023-6.946-36.328-12.482-54.351-17.652-68.652-19.693-142.354-23.842-204.439-59.65q-23.339-13.447-46.42-27.512c-69.474-42.189-146.376-83.229-227.134-102.051C199.8,125.7,96.7,140.128,9.77,215.667" transform="translate(14.057 138.801)" fill="none" stroke="#fff" stroke-miterlimit="10" stroke-width="0.75"/>
                <path id="Path_115" data-name="Path 115" d="M2484.426,451.251c-48.229,52.522-115.792,71.378-178.566,71.6-73.115.258-152.561-25.361-233.682-78.061-18.552-12.053-37.206-25.451-56.663-39.2C1906.6,328.606,1870,211.252,1779.069,163.974c-42.554-22.247-89-43.345-137.67-55.048-39.135-9.409-80.287-12.555-120.925-3.766C1447.511,120.822,1385.3,165,1333.422,217.012c-76.888,77.044-135.655,173.547-253.371,218.584-78.1,29.88-163.062-32.965-248.734-65.64-18.045-6.89-36.24-12.718-54.029-18.388-68.064-21.7-140.535-29.719-202.629-65.7q-23.266-13.47-46.225-27.641c-68.832-42.379-145.691-83.9-226.1-103.312C200.322,130.287,97.381,143.419,10.833,220.371" transform="translate(15.586 143.845)" fill="none" stroke="#fff" stroke-miterlimit="10" stroke-width="0.75"/>
                <path id="Path_116" data-name="Path 116" d="M2480.31,454.16c-49.032,52.2-114.681,73.093-177.963,74.446-72.269,1.544-151.59-22.666-235.146-74.378-18.774-11.618-37.745-24.607-57.531-38.07C1898.027,340.2,1866.245,219.3,1776.251,171.578c-42.318-22.554-88.587-44.73-136.865-57.541-39.291-10.426-80.38-14.5-120.876-6.009-73.02,15.2-134.167,60.277-186.055,113.309-76.866,78.517-137.209,176.407-252.627,219.3C1002,469.556,913.976,416,828.018,383.516c-18.067-6.834-36.148-12.96-53.7-19.13-67.474-23.717-138.718-35.594-200.82-71.752q-23.2-13.491-46.035-27.771C459.274,222.3,382.457,180.3,302.408,160.3,200.85,134.92,98.072,146.761,11.9,225.121" transform="translate(17.114 148.84)" fill="none" stroke="#fff" stroke-miterlimit="10" stroke-width="0.75"/>
                <path id="Path_117" data-name="Path 117" d="M2476.193,457.113C2426.359,509,2362.619,531.9,2298.835,534.408c-71.427,2.807-150.6-20.008-236.614-70.693-18.991-11.192-38.284-23.764-58.4-36.938-114.382-74.929-141.333-199.376-230.392-247.552-42.083-22.864-88.164-46.13-136.055-60.036-39.445-11.45-80.475-16.445-120.833-8.253-73.076,14.735-133.158,60.714-185.055,114.764-76.844,79.992-138.772,179.253-251.88,220.013-77.568,27.951-168.647-16.3-254.887-48.6-18.089-6.78-36.055-13.2-53.385-19.871-66.879-25.741-136.9-41.469-199.008-77.8q-23.123-13.517-45.842-27.9c-67.542-42.757-144.315-85.233-224.01-105.826C201.374,139.6,98.762,150.148,12.956,229.915" transform="translate(18.641 153.791)" fill="none" stroke="#fff" stroke-miterlimit="10" stroke-width="0.75"/>
                <path id="Path_118" data-name="Path 118" d="M2472.075,460.1c-50.636,51.571-112.47,76.456-176.756,80.141-70.591,4.048-149.6-17.386-238.077-67.008-19.21-10.772-38.826-22.912-59.265-35.806-117.128-73.876-139.243-201.893-227.366-250.52-41.847-23.171-87.735-47.539-135.248-62.528-39.594-12.489-80.57-18.388-120.786-10.5-73.135,14.272-132.148,61.153-184.058,116.223-76.819,81.463-140.338,182.078-251.134,220.725-77.309,26.968-171.437-7.965-257.963-40.072-18.113-6.726-35.965-13.447-53.063-20.613-66.279-27.77-135.077-47.344-197.2-83.85q-23.054-13.539-45.652-28.029c-66.9-42.945-143.628-85.9-222.969-107.085C201.9,144.312,99.449,153.567,14.018,234.745" transform="translate(20.169 158.705)" fill="none" stroke="#fff" stroke-miterlimit="10" stroke-width="0.75"/>
                <path id="Path_119" data-name="Path 119" d="M2467.957,463.122c-51.439,51.254-111.372,78.1-176.154,82.99-69.757,5.265-148.588-14.8-239.543-63.323-19.422-10.362-39.389-22.022-60.131-34.675-120.02-72.578-137.15-204.414-224.339-253.49-41.61-23.478-87.3-48.961-134.438-65.021-39.738-13.538-80.665-20.335-120.742-12.743-73.19,13.808-131.136,61.587-183.06,117.679-76.8,82.936-141.908,184.882-250.386,221.437-77.056,25.968-174.229.371-261.041-31.548-18.135-6.673-35.857-13.723-52.743-21.354-65.621-29.922-133.255-53.219-195.386-89.9q-22.981-13.564-45.459-28.161c-66.252-43.132-142.94-86.567-221.927-108.341C202.423,149.057,100.138,157.02,15.08,239.61" transform="translate(21.697 163.588)" fill="none" stroke="#fff" stroke-miterlimit="10" stroke-width="0.75"/>
                <path id="Path_120" data-name="Path 120" d="M2463.841,466.171c-52.244,50.936-110.282,79.719-175.551,85.838-68.932,6.46-147.564-12.26-241.006-59.641q-29.456-14.933-61-33.541c-122.712-71.6-135.058-206.936-221.313-256.461-41.374-23.788-86.857-50.393-133.631-67.515-39.872-14.6-80.758-22.278-120.7-14.986C1437.4,133.211,1380.519,181.891,1328.585,239c-76.773,84.409-143.527,187.531-249.642,222.152-76.836,24.851-177.019,8.7-264.116-23.027a543.284,543.284,0,0,1-52.422-22.1c-65.03-31.914-131.436-59.094-193.576-95.949Q545.921,306.5,523.563,291.8c-65.608-43.323-142.255-87.238-220.886-109.6C202.95,153.831,100.825,160.5,16.141,244.5" transform="translate(23.223 168.443)" fill="none" stroke="#fff" stroke-miterlimit="10" stroke-width="0.75"/>
                <path id="Path_121" data-name="Path 121" d="M2459.724,469.244c-119.369,113.909-254.466,126.919-479.285.319-125.4-70.617-132.965-209.455-218.286-259.428-76.6-44.862-167.5-102.349-253.473-87.24-181.607,31.914-255.846,289.072-429.956,343.459-92.491,28.892-223.937,12.84-319.294-37.338C679.206,386.8,597.838,349,522.589,298.6,375.24,199.909,167.994,96.661,17.2,249.414" transform="translate(24.753 173.274)" fill="none" stroke="#fff" stroke-miterlimit="10" stroke-width="0.75"/>
                <path id="Path_122" data-name="Path 122" d="M2462.99,424.481c-122.832,122.034-265.589,126.785-490.014,8.689-126.446-66.537-138.5-191.625-223.215-231.943-76.232-36.282-154.473-74.293-249.156-55.846-181.19,35.3-261.4,274.366-432.5,317.418-95.608,24.059-223.768,3.763-316.433-46.742-83.536-45.532-154.414-98.69-231.368-153.763C377.853,160.348,170.7,58.534,16.361,208.158" transform="translate(23.54 190.772)" fill="none" stroke="#fff" stroke-miterlimit="10" stroke-width="0.75"/>
                <path id="Path_123" data-name="Path 123" d="M2466.258,409.974c-126.293,130.163-276.778,126.707-500.739,17.062-127.527-62.435-144.147-173.81-228.146-204.461-75.968-27.722-141.44-46.339-244.837-24.454C1311.711,236.4,1225.041,457.147,1057.486,489.5c-99.064,19.127-223.547-5.448-313.572-56.148-86.84-48.905-147.252-117.237-225.9-177.11C380.313,151.408,173.411,50.662,15.519,197.16" transform="translate(22.329 178.016)" fill="none" stroke="#fff" stroke-miterlimit="10" stroke-width="0.75"/>
                <path id="Path_124" data-name="Path 124" d="M2469.524,395.429c-129.756,138.291-288.038,126.693-511.467,25.432-128.644-58.3-149.913-155.97-233.075-176.976-75.817-19.149-128.412-18.486-240.521,6.938-180.5,40.938-274.025,243.006-437.594,265.343-102.814,14.04-223.269-14.772-310.709-65.552-90.128-52.339-140.123-135.66-220.425-200.456C382.611,142.746,176.119,42.751,14.676,186.123" transform="translate(21.116 165.297)" fill="none" stroke="#fff" stroke-miterlimit="10" stroke-width="0.75"/>
                <path id="Path_125" data-name="Path 125" d="M2472.791,380.853c-133.219,146.418-299.356,126.746-522.2,33.8-129.792-54.136-155.8-138.07-238-149.49-75.783-10.531-115.4,9.267-236.2,38.333-180.214,43.357-280.909,226.281-440.138,239.3C929.436,551.534,813.3,518.6,728.4,467.842c-93.391-55.834-133.041-153.966-214.955-223.8C384.754,134.326,178.828,34.811,13.834,175.054" transform="translate(19.904 152.607)" fill="none" stroke="#fff" stroke-miterlimit="10" stroke-width="0.75"/>
                <path id="Path_126" data-name="Path 126" d="M2476.057,366.257c-136.679,154.546-310.733,126.876-532.921,42.172-130.975-49.929-161.8-120.059-242.938-122.005-75.846-1.822-102.395,36.926-231.885,69.725-179.968,45.586-288.048,208.87-442.684,213.265-111,3.156-222.576-33.709-304.987-84.363-96.627-59.392-126.02-172.159-209.48-247.147C386.745,126.116,181.536,26.85,12.991,163.966" transform="translate(18.691 139.941)" fill="none" stroke="#fff" stroke-miterlimit="10" stroke-width="0.75"/>
                <path id="Path_127" data-name="Path 127" d="M2479.325,351.645c-140.142,162.675-322.164,127.088-543.65,50.544-132.187-45.683-167.859-101.91-247.866-94.523-75.978,7.014-89.418,64.486-227.566,101.119-179.758,47.664-295.349,190.8-445.232,187.223-115.321-2.751-222.164-43.293-302.125-93.764C613.057,439.229,593.807,312,508.876,231.749,388.588,118.09,184.247,18.872,12.149,152.862" transform="translate(17.48 127.287)" fill="none" stroke="#fff" stroke-miterlimit="10" stroke-width="0.75"/>
                <path id="Path_128" data-name="Path 128" d="M2482.593,337.025c-143.6,170.8-333.639,127.383-554.376,58.914-133.426-41.386-173.944-83.6-252.8-67.037-76.132,15.991-76.466,91.955-223.249,132.512-179.58,49.62-302.717,172.13-447.776,161.187-119.705-9.031-221.717-52.946-299.264-103.171C602.136,452.724,592.9,311.208,506.594,225.589c-116.3-115.369-319.637-214.7-495.289-83.841" transform="translate(16.266 114.643)" fill="none" stroke="#fff" stroke-miterlimit="10" stroke-width="0.75"/>
                <path id="Path_129" data-name="Path 129" d="M2485.86,322.4c-147.066,178.929-345.147,127.771-565.1,67.284-134.685-37.038-179.995-65.15-257.726-39.552-76.251,25.107-63.543,119.327-218.932,163.9-179.431,51.476-310.077,152.917-450.322,135.148-124.083-15.72-221.23-62.655-296.4-112.574C591.26,466.141,591.9,310.515,504.308,219.424,391.858,102.484,189.665,2.9,10.463,130.635" transform="translate(15.054 102.004)" fill="none" stroke="#fff" stroke-miterlimit="10" stroke-width="0.75"/>
                <path id="Path_130" data-name="Path 130" d="M2489.126,307.779C2338.6,494.837,2132.439,436.03,1913.295,383.433c-135.96-32.631-185.978-46.581-262.655-12.07-76.3,34.343-50.649,146.613-214.616,195.3-179.312,53.244-317.357,133.229-452.866,109.109C854.77,652.919,762.445,603.358,689.615,553.792c-109.18-74.3-98.829-243.874-187.594-340.53C393.3,94.863,192.373-5.088,9.62,119.519" transform="translate(13.841 89.36)" fill="none" stroke="#fff" stroke-miterlimit="10" stroke-width="0.75"/>
                <path id="Path_131" data-name="Path 131" d="M2492.394,293.163c-153.99,195.186-368.245,128.826-586.558,84.026-137.25-28.168-191.867-27.939-267.586,15.413-76.259,43.662-37.787,173.805-210.3,226.693-179.222,54.946-324.5,113.143-455.414,83.07C839.988,671.916,752.379,620.146,681.859,570.98,569.668,492.758,589.554,309.42,499.738,207.1,394.607,87.339,195.082-13.068,8.778,108.413" transform="translate(12.63 76.713)" fill="none" stroke="#fff" stroke-miterlimit="10" stroke-width="0.75"/>
                <path id="Path_132" data-name="Path 132" d="M2495.66,278.556c-157.453,203.312-379.809,129.5-597.286,92.4-138.543-23.637-197.654-9.255-272.518,42.9-76.112,53.027-24.954,200.9-205.978,258.087-179.154,56.587-331.446,92.728-457.958,57.029-136.5-38.513-219.579-92.059-287.818-140.789C558.962,505.959,588.2,309.022,497.451,200.954,395.8,79.9,197.79-21.041,7.935,97.313" transform="translate(11.417 64.057)" fill="none" stroke="#fff" stroke-miterlimit="10" stroke-width="0.75"/>
                <path id="Path_133" data-name="Path 133" d="M2498.928,263.961C2338.012,475.4,2107.553,394.228,1890.913,364.726c-139.835-19.042-203.354,9.441-277.446,70.383-75.876,62.411-12.158,227.919-201.661,289.479-179.109,58.182-338.157,72.056-460.5,30.992C811.12,708.53,732.335,653.645,666.346,605.386c-118.018-86.3-79.644-296.669-171.179-410.568C396.887,72.528,200.5-29,7.093,86.224" transform="translate(10.205 51.387)" fill="none" stroke="#fff" stroke-miterlimit="10" stroke-width="0.75"/>
                <path id="Path_134" data-name="Path 134" d="M2502.194,249.38c-164.377,219.569-402.927,131.131-618.74,109.136-141.125-14.382-208.975,28.127-282.378,97.869-75.559,71.793.6,254.846-197.344,320.871-179.088,59.736-344.6,51.2-463.048,4.953-143.535-56.039-218.328-111.838-282.1-159.6C537.772,532.129,585.072,308.506,492.881,188.7,397.863,65.211,203.207-36.945,6.25,75.153" transform="translate(8.992 38.704)" fill="none" stroke="#fff" stroke-miterlimit="10" stroke-width="0.75"/>
                <path id="Path_135" data-name="Path 135" d="M2505.461,234.818C2337.621,462.515,2091,366.9,1875.993,352.323c-142.4-9.653-214.53,46.788-287.306,125.354-75.176,81.156,13.328,281.687-193.025,352.266-179.088,61.25-350.761,30.214-465.6-21.086-146.51-65.452-217.657-121.769-279.234-169C527.3,545.093,583.3,308.386,490.6,182.591,398.741,57.94,205.915-44.875,5.408,64.1" transform="translate(7.781 26.001)" fill="none" stroke="#fff" stroke-miterlimit="10" stroke-width="0.75"/>
                <path id="Path_136" data-name="Path 136" d="M2508.727,220.275c-171.3,235.824-425.958,133.124-640.2,125.878-143.657-4.86-220.037,65.421-292.235,152.836-74.741,90.494,26.014,308.446-188.709,383.658-179.109,62.738-356.612,9.168-468.14-47.125C770.371,760.281,702.483,703.806,643.074,657.115c-126.149-99.142-61.7-348.759-154.763-480.607C399.519,50.7,208.623-52.782,4.565,53.062" transform="translate(6.568 13.281)" fill="none" stroke="#fff" stroke-miterlimit="10" stroke-width="0.75"/>
                <path id="Path_137" data-name="Path 137" d="M2512,205.752C2337.232,449.7,2074.579,340,1861.073,340c-144.891,0-225.507,84.026-297.169,180.322-74.268,99.8,38.667,335.119-184.389,415.053-179.148,64.2-362.148-11.894-470.686-73.164-151.2-85.358-216.24-141.684-273.51-187.814C506.657,570.766,579.292,308.408,486.025,170.444,400.207,43.495,211.332-60.668,3.723,42.049" transform="translate(5.357 0.54)" fill="none" stroke="#fff" stroke-miterlimit="10" stroke-width="0.75"/>
              </g>
            </g>
          </g>
        </g>
      </g>
    </g>
  </g>
</svg>
