<svg xmlns="http://www.w3.org/2000/svg" width="25" height="25" viewBox="0 0 25 25">
  <g id="Group_32" data-name="Group 32" transform="translate(-75 -1752)">
    <rect id="Rectangle_17" data-name="Rectangle 17" width="25" height="25" transform="translate(75 1752)" fill="none"/>
    <g id="Group_24" data-name="Group 24" transform="translate(75.338 1752)">
      <path id="Path_147" data-name="Path 147" d="M4.351,3H25.973a1.351,1.351,0,0,1,1.339,1.536l-2.7,19.595a1.351,1.351,0,0,1-.911,1.1l-8.108,2.7a1.351,1.351,0,0,1-.855,0l-8.108-2.7a1.351,1.351,0,0,1-.911-1.1L3.013,4.536A1.351,1.351,0,0,1,4.351,3ZM24.422,5.7H5.9L8.278,22.929l6.884,2.295,6.884-2.295Z" transform="translate(-3 -3)" fill="#d9dee2"/>
      <path id="Path_148" data-name="Path 148" d="M13.581,20.851a1.351,1.351,0,0,1-.388-.057L9.814,19.781a1.351,1.351,0,0,1-.937-1.029l-.135-.676a1.351,1.351,0,0,1,2.62-.652l2.219.666,2.163-.649.333-2.332H9.527a1.351,1.351,0,0,1-1.341-1.184L7.51,8.519A1.351,1.351,0,0,1,8.851,7h9.459a1.351,1.351,0,1,1,0,2.7H10.382l.338,2.7h6.915a1.351,1.351,0,0,1,1.338,1.542l-.676,4.73a1.351,1.351,0,0,1-.949,1.1l-3.378,1.014A1.351,1.351,0,0,1,13.581,20.851Z" transform="translate(-1.419 -1.595)" fill="#d9dee2"/>
    </g>
  </g>
</svg>
