<svg xmlns="http://www.w3.org/2000/svg" width="25" height="25.003" viewBox="0 0 25 25.003">
  <g id="Group_52" data-name="Group 52" transform="translate(-243 -1925)">
    <rect id="Rectangle_34" data-name="Rectangle 34" width="25" height="25" transform="translate(243 1925)" fill="none"/>
    <path id="Union_2" data-name="Union 2" d="M-2037.947,23.99l-9.041-9.04a3.465,3.465,0,0,1,0-4.895l9.041-9.041A3.437,3.437,0,0,1-2035.5,0a3.437,3.437,0,0,1,2.447,1.014l.03.031,9.012,9.011a3.465,3.465,0,0,1,0,4.895l-9.041,9.04A3.437,3.437,0,0,1-2035.5,25,3.437,3.437,0,0,1-2037.947,23.99Zm-7.434-12.328a1.19,1.19,0,0,0,0,1.68l9.041,9.041a1.181,1.181,0,0,0,.84.348,1.18,1.18,0,0,0,.84-.348l9.042-9.041a1.189,1.189,0,0,0,0-1.68l-9.042-9.039-.021-.023a1.178,1.178,0,0,0-.818-.327,1.181,1.181,0,0,0-.84.348l-1.444,1.444,1.7,1.7a2.27,2.27,0,0,1,.588-.077,2.275,2.275,0,0,1,2.273,2.273,2.277,2.277,0,0,1-.077.588l1.762,1.762a2.269,2.269,0,0,1,.589-.077,2.276,2.276,0,0,1,2.273,2.273,2.275,2.275,0,0,1-2.273,2.273,2.275,2.275,0,0,1-2.274-2.273,2.272,2.272,0,0,1,.077-.588l-1.214-1.213v4.38a2.275,2.275,0,0,1,1.137,1.969,2.276,2.276,0,0,1-2.273,2.273,2.276,2.276,0,0,1-2.273-2.273,2.276,2.276,0,0,1,1.136-1.969V9.924a2.275,2.275,0,0,1-1.136-1.968,2.262,2.262,0,0,1,.077-.589l-1.7-1.7Z" transform="translate(2291 1925)" fill="#d9dee2"/>
  </g>
</svg>
