<svg xmlns="http://www.w3.org/2000/svg" width="25" height="25" viewBox="0 0 25 25">
  <g id="Group_34" data-name="Group 34" transform="translate(-225 -1736)">
    <rect id="Rectangle_21" data-name="Rectangle 21" width="25" height="25" transform="translate(225 1736)" fill="none"/>
    <g id="Group_31" data-name="Group 31" transform="translate(-11 6)">
      <path id="Path_147" data-name="Path 147" d="M13.93,24.858a1.786,1.786,0,0,1-1.6-.988L5.189,9.584a1.786,1.786,0,1,1,3.194-1.6l7.143,14.286a1.786,1.786,0,0,1-1.6,2.585Z" transform="translate(231 1727)" fill="#d9dee2"/>
      <path id="Path_148" data-name="Path 148" d="M6.784,24.858a1.786,1.786,0,0,1-1.6-2.585L12.332,7.987a1.786,1.786,0,0,1,3.194,1.6L8.383,23.87A1.786,1.786,0,0,1,6.784,24.858Z" transform="translate(231 1727)" fill="#d9dee2"/>
      <path id="Path_149" data-name="Path 149" d="M14.786,7h3.571a5.363,5.363,0,0,1,5.357,5.357V19.5a5.363,5.363,0,0,1-5.357,5.357H14.786A1.786,1.786,0,0,1,13,23.071V8.786A1.786,1.786,0,0,1,14.786,7Zm3.571,14.286A1.788,1.788,0,0,0,20.143,19.5V12.357a1.788,1.788,0,0,0-1.786-1.786H16.571V21.286Z" transform="translate(237.286 1727)" fill="#d9dee2"/>
    </g>
  </g>
</svg>
