<svg xmlns="http://www.w3.org/2000/svg" width="25" height="25" viewBox="0 0 25 25">
  <g id="Group_37" data-name="Group 37" transform="translate(-155 -1753)">
    <rect id="Rectangle_18" data-name="Rectangle 18" width="25" height="25" transform="translate(155 1753)" fill="none"/>
    <g id="Group_26" data-name="Group 26" transform="translate(155.338 1753)">
      <path id="Path_147" data-name="Path 147" d="M4.351,3H25.973a1.351,1.351,0,0,1,1.339,1.536l-2.7,19.595a1.351,1.351,0,0,1-.911,1.1l-8.108,2.7a1.351,1.351,0,0,1-.855,0l-8.108-2.7a1.351,1.351,0,0,1-.911-1.1L3.013,4.536A1.351,1.351,0,0,1,4.351,3ZM24.422,5.7H5.9L8.278,22.929l6.884,2.295,6.884-2.295Z" transform="translate(-3 -3)" fill="#d9dee2"/>
      <path id="Path_148" data-name="Path 148" d="M14.161,21.915a1.5,1.5,0,0,1-.425-.061l-3.7-1.091a1.465,1.465,0,0,1-1.026-1.108l-.148-.728a1.456,1.456,0,0,1,1.161-1.712,1.483,1.483,0,0,1,1.709,1.01l2.43.717,2.369-.7.365-2.511H12.681a1.48,1.48,0,0,1-1.384-.938,1.439,1.439,0,0,1,.4-1.6L15.449,9.91H8.98A1.455,1.455,0,1,1,8.98,7H19.342a1.48,1.48,0,0,1,1.384.938,1.439,1.439,0,0,1-.4,1.6L16.574,12.82H18.6a1.491,1.491,0,0,1,1.118.5,1.438,1.438,0,0,1,.347,1.159l-.74,5.093a1.463,1.463,0,0,1-1.04,1.188l-3.7,1.091A1.5,1.5,0,0,1,14.161,21.915Z" transform="translate(-1.999 -2.11)" fill="#d9dee2"/>
    </g>
  </g>
</svg>
