<svg xmlns="http://www.w3.org/2000/svg" width="25" height="25" viewBox="0 0 25 25">
  <g id="Group_33" data-name="Group 33" transform="translate(-184 -1757)">
    <rect id="Rectangle_20" data-name="Rectangle 20" width="25" height="25" transform="translate(184 1757)" fill="none"/>
    <g id="Group_28" data-name="Group 28" transform="translate(27.169 -41.697)">
      <path id="Path_147" data-name="Path 147" d="M13.331,18.124a23.2,23.2,0,0,1-8.343-1.393C2.416,15.7,1,14.207,1,12.519a3.752,3.752,0,0,1,1.77-3.01A11.75,11.75,0,0,1,6.648,7.752a1.121,1.121,0,1,1,.6,2.16C4.5,10.677,3.242,11.8,3.242,12.519c0,.668,1.012,1.5,2.579,2.13a20.942,20.942,0,0,0,7.51,1.233c.82,0,1.633-.037,2.416-.11A1.121,1.121,0,1,1,15.955,18C15.1,18.084,14.22,18.124,13.331,18.124Z" transform="translate(156 1798.678)" fill="#d9dee2"/>
      <path id="Path_148" data-name="Path 148" d="M18.773,17.413a1.121,1.121,0,0,1-.3-2.2c2.754-.764,4.008-1.887,4.008-2.607,0-.668-1.012-1.5-2.579-2.13a20.942,20.942,0,0,0-7.51-1.233c-.819,0-1.633.037-2.419.11a1.121,1.121,0,1,1-.207-2.232C10.622,7.04,11.505,7,12.393,7a23.2,23.2,0,0,1,8.343,1.393c2.572,1.029,3.988,2.524,3.988,4.212,0,2.034-2.06,3.771-5.651,4.767A1.122,1.122,0,0,1,18.773,17.413Z" transform="translate(156.938 1798.592)" fill="#d9dee2"/>
      <path id="Path_149" data-name="Path 149" d="M8.262,23.206A3.093,3.093,0,0,1,6.691,22.8c-1.761-1.015-2.236-3.666-1.3-7.274a1.121,1.121,0,1,1,2.171.561c-.715,2.766-.37,4.412.253,4.771.579.334,1.809-.124,3.135-1.167A20.932,20.932,0,0,0,15.769,13.8c.412-.714.787-1.437,1.113-2.149a1.121,1.121,0,1,1,2.038.934c-.356.776-.763,1.561-1.21,2.336a23.192,23.192,0,0,1-5.378,6.528A6.928,6.928,0,0,1,8.262,23.206Z" transform="translate(156.474 1799.076)" fill="#d9dee2"/>
      <path id="Path_150" data-name="Path 150" d="M7.619,14.318A1.122,1.122,0,0,1,6.6,12.728c.361-.783.768-1.568,1.21-2.334A23.192,23.192,0,0,1,13.19,3.865c2.177-1.713,4.18-2.191,5.642-1.347,1.762,1.014,2.237,3.667,1.3,7.278a1.121,1.121,0,0,1-2.171-.562c.716-2.768.371-4.415-.252-4.774-.579-.334-1.809.124-3.135,1.167a20.932,20.932,0,0,0-4.823,5.888c-.408.707-.783,1.43-1.115,2.151A1.121,1.121,0,0,1,7.619,14.318Z" transform="translate(156.665 1798)" fill="#d9dee2"/>
      <path id="Path_151" data-name="Path 151" d="M10.333,18.685a1.12,1.12,0,0,1-.916-.473c-.5-.7-.975-1.449-1.415-2.213A23.19,23.19,0,0,1,5.038,8.077c-.395-2.742.192-4.716,1.654-5.559,1.761-1.018,4.294-.1,6.951,2.508a1.121,1.121,0,1,1-1.572,1.6c-2.036-2-3.635-2.525-4.258-2.165-.578.334-.8,1.628-.556,3.3a20.932,20.932,0,0,0,2.687,7.121c.406.705.844,1.391,1.3,2.038a1.121,1.121,0,0,1-.914,1.769Z" transform="translate(156.474 1798)" fill="#d9dee2"/>
      <path id="Path_152" data-name="Path 152" d="M16.72,23.678c-1.558,0-3.438-1-5.385-2.916a1.121,1.121,0,1,1,1.572-1.6c2.038,2,3.636,2.528,4.258,2.168.579-.334.8-1.628.556-3.3a20.932,20.932,0,0,0-2.687-7.121c-.4-.692-.838-1.379-1.3-2.042a1.121,1.121,0,0,1,1.834-1.29c.505.718.98,1.462,1.413,2.211a23.191,23.191,0,0,1,2.965,7.922c.395,2.742-.192,4.716-1.654,5.559A3.081,3.081,0,0,1,16.72,23.678Z" transform="translate(157.21 1798.604)" fill="#d9dee2"/>
      <path id="Path_153" data-name="Path 153" d="M12.241,14.484a2.242,2.242,0,1,1,1.943-1.121A2.243,2.243,0,0,1,12.241,14.484Z" transform="translate(157.089 1798.955)" fill="#d9dee2"/>
    </g>
  </g>
</svg>
