<svg xmlns="http://www.w3.org/2000/svg" width="25" height="25" viewBox="0 0 25 25">
  <g id="Group_36" data-name="Group 36" transform="translate(-210 -1793)">
    <rect id="Rectangle_23" data-name="Rectangle 23" width="25" height="25" transform="translate(210 1793)" fill="none"/>
    <g id="Group_29" data-name="Group 29" transform="translate(-7 17.568)">
      <path id="Path_147" data-name="Path 147" d="M17.091,2a1.136,1.136,0,0,1,1.086,1.471L16.5,8.932l.319-.08a1.136,1.136,0,0,1,1.262,1.666l-4.545,7.955a1.136,1.136,0,0,1-2.123-.564V13.8L9.5,14.442A1.136,1.136,0,0,1,8.01,13.213L9.146,4.691A1.136,1.136,0,0,1,10,3.738l6.818-1.7A1.136,1.136,0,0,1,17.091,2Zm-2.283,9.659a1.136,1.136,0,0,1-1.076-1.471l1.68-5.461L11.3,5.756,10.5,11.71l1.683-.561a1.136,1.136,0,0,1,1.5,1.078v1.4Z" transform="translate(216.955 1774)" fill="#d9dee2"/>
      <path id="Path_148" data-name="Path 148" d="M13.5,25.591a1.136,1.136,0,0,1-.979-.56L1.157,5.713a1.136,1.136,0,0,1,1.2-1.692l8.8,1.7a1.136,1.136,0,1,1-.432,2.231L4.393,6.731,13.5,22.213,22.573,6.789,17.147,7.952a1.136,1.136,0,0,1-.476-2.222l7.955-1.7a1.136,1.136,0,0,1,1.218,1.687L14.479,25.031A1.136,1.136,0,0,1,13.5,25.591Z" transform="translate(216 1774.273)" fill="#d9dee2"/>
    </g>
  </g>
</svg>
