<svg xmlns="http://www.w3.org/2000/svg" width="25" height="25" viewBox="0 0 25 25">
  <g id="Group_35" data-name="Group 35" transform="translate(-225 -1762)">
    <rect id="Rectangle_22" data-name="Rectangle 22" width="25" height="25" transform="translate(225 1762)" fill="none"/>
    <path id="icons8-nodejs" d="M12.762,1.023a2.68,2.68,0,0,0-1.363.371L3.328,6.145A2.7,2.7,0,0,0,2,8.465V18.929a2.688,2.688,0,0,0,1.4,2.361l2.645,1.443a2.69,2.69,0,0,0,3.976-2.365V8.99H8.229V20.369a.9.9,0,0,1-1.324.788l-2.642-1.44a.9.9,0,0,1-.469-.788V8.465a.9.9,0,0,1,.441-.774L12.307,2.94a.9.9,0,0,1,.911,0L21.29,7.69a.908.908,0,0,1,.441.774V18.936a.911.911,0,0,1-.466.788l-8.072,4.4a.916.916,0,0,1-.862,0l-1.577-.862a4.261,4.261,0,0,1-1.132.97,2.4,2.4,0,0,1-.431.214L11.47,25.7a2.728,2.728,0,0,0,2.585,0l8.072-4.411a2.667,2.667,0,0,0,1.4-2.351V8.465A2.7,2.7,0,0,0,22.2,6.145L14.129,1.395A2.7,2.7,0,0,0,12.762,1.023Zm2.6,7.7c-2.834,0-4.271.988-4.271,2.936,0,2.206,2.541,2.535,3.763,2.691.176.023.332.043.455.067l.536.095c1.865.312,2.295.524,2.295,1.125,0,.291,0,1.17-2.778,1.17-2.355,0-2.838-.7-2.838-1.748H10.734c0,1.618.8,3.542,4.631,3.542,3.778,0,4.572-1.611,4.572-2.964,0-2.257-2.192-2.626-3.791-2.9l-.515-.088c-.149-.027-.337-.052-.547-.077-1.141-.147-2.2-.358-2.2-.911,0-.4,0-1.144,2.477-1.146,1.648,0,2.487.542,2.487,1.612h1.794C19.647,10.488,18.519,8.727,15.365,8.727Z" transform="translate(224.5 1760.977)" fill="#d9dee2"/>
  </g>
</svg>
