<svg xmlns="http://www.w3.org/2000/svg" width="25" height="25" viewBox="0 0 25 25">
  <g id="Group_35" data-name="Group 35" transform="translate(-225 -1762)">
    <rect id="Rectangle_22" data-name="Rectangle 22" width="25" height="25" transform="translate(225 1762)" fill="none"/>
    <g id="Group_30" data-name="Group 30" transform="translate(-4 6)">
      <path id="Path_147" data-name="Path 147" d="M1.042,7H23.958A1.042,1.042,0,0,1,25,8.042v7.292a1.042,1.042,0,0,1-1.042,1.042H12.5v1.042a1.042,1.042,0,0,1-1.042,1.042H7.292A1.042,1.042,0,0,1,6.25,17.417V16.375H1.042A1.042,1.042,0,0,1,0,15.333V8.042A1.042,1.042,0,0,1,1.042,7ZM22.917,9.083H2.083v5.208H7.292a1.042,1.042,0,0,1,1.042,1.042v1.042h2.083V15.333a1.042,1.042,0,0,1,1.042-1.042H22.917Z" transform="translate(229 1756)" fill="#d9dee2"/>
      <path id="Path_148" data-name="Path 148" d="M7.042,16.375A1.042,1.042,0,0,1,6,15.333V8.042a1.042,1.042,0,1,1,2.083,0v7.292A1.042,1.042,0,0,1,7.042,16.375Z" transform="translate(229.25 1756)" fill="#d9dee2"/>
      <path id="Path_149" data-name="Path 149" d="M14.042,16.375A1.042,1.042,0,0,1,13,15.333V8.042a1.042,1.042,0,1,1,2.083,0v7.292A1.042,1.042,0,0,1,14.042,16.375Z" transform="translate(229.542 1756)" fill="#d9dee2"/>
      <path id="Path_150" data-name="Path 150" d="M17.042,16.25A1.042,1.042,0,0,1,16,15.208V11.042a1.042,1.042,0,0,1,2.083,0v4.167A1.042,1.042,0,0,1,17.042,16.25Z" transform="translate(229.667 1756.125)" fill="#d9dee2"/>
      <path id="Path_151" data-name="Path 151" d="M4.042,16.25A1.042,1.042,0,0,1,3,15.208V11.042a1.042,1.042,0,0,1,2.083,0v4.167A1.042,1.042,0,0,1,4.042,16.25Z" transform="translate(229.125 1756.125)" fill="#d9dee2"/>
      <path id="Path_152" data-name="Path 152" d="M11.042,13.125A1.042,1.042,0,0,1,10,12.083V11.042a1.042,1.042,0,0,1,2.083,0v1.042A1.042,1.042,0,0,1,11.042,13.125Z" transform="translate(229.417 1756.125)" fill="#d9dee2"/>
      <path id="Path_153" data-name="Path 153" d="M20.042,16.25A1.042,1.042,0,0,1,19,15.208V11.042a1.042,1.042,0,0,1,2.083,0v4.167A1.042,1.042,0,0,1,20.042,16.25Z" transform="translate(229.792 1756.125)" fill="#d9dee2"/>
    </g>
  </g>
</svg>
