<svg xmlns="http://www.w3.org/2000/svg" width="25" height="25.25" viewBox="0 0 25 25.25">
  <g id="Group_49" data-name="Group 49" transform="translate(-234 -1911.75)">
    <rect id="Rectangle_33" data-name="Rectangle 33" width="25" height="25" transform="translate(234 1912)" fill="none"/>
    <path id="Path_146" data-name="Path 146" d="M24.524,15.336a.549.549,0,0,0-.059-.124c-.145-.274-.5-.356-1.049-.242-1.722.355-2.389.137-2.631-.02a24.814,24.814,0,0,0,3.168-7.114c.283-1.094.831-3.671.127-4.929a1.629,1.629,0,0,0-.157-.245A7.052,7.052,0,0,0,18.222,0a10.036,10.036,0,0,0-3.246.5q-.267-.05-.537-.085A8.379,8.379,0,0,0,13.073.282,5.365,5.365,0,0,0,9.9,1.157C9,.823,4.908-.556,2.373,1.239.958,2.242.3,4.035.431,6.567A33.445,33.445,0,0,0,1.725,12.55a19.31,19.31,0,0,0,1.493,3.731A3.708,3.708,0,0,0,5,18.145a1.72,1.72,0,0,0,1.936-.758c.835-1,1.657-1.9,2.026-2.3a3.234,3.234,0,0,0,1.448.393v0q-.132.157-.257.318c-.353.448-.426.541-1.563.775-.323.067-1.182.244-1.194.845a.616.616,0,0,0,.1.34,1.831,1.831,0,0,0,1.057.659,3.717,3.717,0,0,0,3.512-.707,22.05,22.05,0,0,0,.36,5.3A2.69,2.69,0,0,0,15,25a4.128,4.128,0,0,0,.864-.1,3.263,3.263,0,0,0,2.974-3.027c.157-.907.418-3,.561-4.272a.287.287,0,0,1,.059-.142s.073-.049.445.032l.046.007.264.023h.016a6.413,6.413,0,0,0,2.637-.449c.671-.311,1.881-1.075,1.662-1.739ZM2.452,12.371a33.133,33.133,0,0,1-1.263-5.8c-.113-2.262.434-3.836,1.627-4.68C4.73.535,7.859,1.324,9.18,1.752l-.01.01C7.061,3.891,7.111,7.528,7.116,7.751c0,.086.007.207.017.374a15.058,15.058,0,0,1-.077,3.04A3.844,3.844,0,0,0,8.07,14.383q.126.131.262.247c-.361.387-1.146,1.242-1.982,2.247-.591.711-1,.575-1.134.53a2.9,2.9,0,0,1-1.29-1.377,18.556,18.556,0,0,1-1.474-3.659Zm6.257,5.3a1.693,1.693,0,0,1-.45-.185,2.526,2.526,0,0,1,.5-.147c1.337-.275,1.543-.469,1.994-1.042.1-.131.22-.28.383-.461a.37.37,0,0,0,.077-.135c.178-.158.284-.114.455-.043a.782.782,0,0,1,.385.495.551.551,0,0,1-.047.463,2.923,2.923,0,0,1-3.3,1.055Zm2.181-4.154-.055.147a9.624,9.624,0,0,0-.347,1.045A2.629,2.629,0,0,1,8.6,13.872a3.11,3.11,0,0,1-.815-2.6,15.731,15.731,0,0,0,.082-3.186c-.005-.089-.01-.167-.013-.229a4.058,4.058,0,0,1,2.753-.8,1.12,1.12,0,0,1,.865.967c.609,2.816.081,3.99-.344,4.934-.087.194-.17.378-.241.568Zm7.671,4.763c-.018.184-.037.392-.064.621l-.152.457a.37.37,0,0,0-.019.112,2.92,2.92,0,0,1-.12.906,5.007,5.007,0,0,0-.187,1.1A2.755,2.755,0,0,1,15.5,24.139c-1.579.339-1.859-.517-2.105-1.273q-.038-.119-.08-.236a7.9,7.9,0,0,1-.164-2.662,8.352,8.352,0,0,0-.344-2.756q.007-.458.02-.929a.368.368,0,0,0-.016-.117,1.554,1.554,0,0,0-.046-.217,1.5,1.5,0,0,0-.812-.974,1.146,1.146,0,0,0-.748-.091,9.044,9.044,0,0,1,.322-.963l.055-.148c.062-.167.14-.339.222-.522.444-.987,1.053-2.339.392-5.393A1.926,1.926,0,0,0,9.872,6.286a5.368,5.368,0,0,0-1.78.554q-.1.052-.2.108A7.769,7.769,0,0,1,9.7,2.279a4.2,4.2,0,0,1,.316-.288.368.368,0,0,0,.151-.067,4.58,4.58,0,0,1,2.919-.867,11.236,11.236,0,0,1,1.223.084,7.167,7.167,0,0,1,4.2,2.482A8.271,8.271,0,0,1,20,6.18c-1.378-.14-2.316.132-2.791.811-1.034,1.478.566,4.347,1.334,5.725.141.253.263.471.3.564a5.118,5.118,0,0,0,.811,1.308c.073.091.143.179.2.255-.417.12-1.167.4-1.1,1.789-.013.163-.044.466-.087.849a7,7,0,0,0-.1.8Zm.928-1.689c-.042-.866.28-.957.622-1.053q.071-.019.141-.042a1.252,1.252,0,0,0,.14.107,4.447,4.447,0,0,0,3.132.14,4.211,4.211,0,0,1-.993.626,5.38,5.38,0,0,1-1.82.379,2.283,2.283,0,0,1-1.221-.157Zm.593-9.657a7.508,7.508,0,0,1-.11,1.043A9.678,9.678,0,0,0,19.841,9.2a9.272,9.272,0,0,0,.1,1.386,4.934,4.934,0,0,1-.216,2.814,3.674,3.674,0,0,1-.2-.4c-.055-.133-.174-.346-.339-.642-.641-1.15-2.143-3.843-1.374-4.942.4-.565,1.4-.59,2.269-.482Zm.238,7.306-.089-.112-.037-.046a5.206,5.206,0,0,0,.477-3.582,8.61,8.61,0,0,1-.092-1.274A9.034,9.034,0,0,1,20.7,8.089a7.166,7.166,0,0,0,.116-1.407.582.582,0,0,0,.012-.2,7.9,7.9,0,0,0-1.8-3.389,8.128,8.128,0,0,0-2.8-2.124A9.637,9.637,0,0,1,18.337.778a6.236,6.236,0,0,1,5.025,2.377.946.946,0,0,1,.069.1c.753,1.412-.288,6.537-3.111,10.98ZM11.137,7.868a.683.683,0,0,1-.647.44.606.606,0,0,1-.084-.006.83.83,0,0,1-.527-.329.452.452,0,0,1-.11-.3.233.233,0,0,1,.1-.155.926.926,0,0,1,.635-.09c.329.046.669.2.637.436ZM19.4,7.439a.467.467,0,0,1-.159.323A.752.752,0,0,1,18.813,8,.568.568,0,0,1,18.735,8a.629.629,0,0,1-.584-.387c-.025-.184.275-.324.584-.367S19.372,7.256,19.4,7.439Z" transform="translate(234.017 1911.75)" fill="#d9dee2"/>
  </g>
</svg>
