<svg xmlns="http://www.w3.org/2000/svg" width="25.002" height="25.002" viewBox="0 0 25.002 25.002">
  <g id="Group_38" data-name="Group 38" transform="translate(-152 -1783)">
    <rect id="Rectangle_24" data-name="Rectangle 24" width="25" height="25" transform="translate(152 1783)" fill="none"/>
    <path id="Path_147" data-name="Path 147" d="M21.058,3a1.385,1.385,0,0,1,.62.147l5.556,2.778A1.389,1.389,0,0,1,28,7.167V23.835a1.389,1.389,0,0,1-.768,1.242l-5.556,2.778a1.389,1.389,0,0,1-1.722-.4l-7.447-9.681L8.268,23.293a1.389,1.389,0,0,1-1.722.4L3.768,22.3A1.389,1.389,0,0,1,3,21.057V9.945A1.389,1.389,0,0,1,3.768,8.7L6.546,7.314a1.389,1.389,0,0,1,1.722.4l4.241,5.514,7.447-9.681A1.389,1.389,0,0,1,21.058,3Zm4.166,5.026L21.46,6.143l-7.2,9.358,7.2,9.358,3.764-1.882ZM10.757,15.5,6.764,10.31l-.986.493v9.4l.986.493Z" transform="translate(149 1780)" fill="#d9dee2"/>
  </g>
</svg>
